<?xml version="1.0" encoding="UTF-8"?>
<svg id="_圖層_2" data-name="圖層 2" xmlns="http://www.w3.org/2000/svg" viewBox="0 0 125.4 130.74">
  <defs>
    <style>
      .cls-1 {
        fill: #fff;
      }

      .cls-2 {
        fill: #ed7921;
      }

      .cls-3 {
        fill: #e5c12c;
      }

      .cls-4 {
        fill: #00ab6c;
      }
    </style>
  </defs>
  <g id="_圖層_3" data-name="圖層 3">
    <path class="cls-1" d="M115.29,44.06c3.85,6.59,12.2,17.25,3.77,22.79-7.18,4.71-14.79,1.22-20.2-4.61-8.65-9.31-13.9-22.54-13.59-35.34,.33-13.75,12.32-13.75,19.16-4.23,4.43,6.17,6.67,13.49,10.18,20.16,.21,.39,.43,.8,.68,1.22Z"/>
    <path class="cls-4" d="M37.05,15.05C28.04,10.87,19.53,6.54,11.23,1.2,5.1-2.74,1.14,3.91,.33,8.43c-2.67,15.03,11.19,33.43,25.4,40.52,11.58,5.77,26.32-.62,33.17-11.35,5.96-9.34-6.04-15.42-13.69-18.84-2.77-1.24-5.49-2.47-8.17-3.71Z"/>
    <path class="cls-2" d="M74.43,109.6c-2.96-2.7-5.88-5.46-8.76-8.2-2.78-2.65-14.9-12.46-12.69-17.29,5.87-12.82,35.69-2.52,45.66,.74,15.38,5.02,31.34,15.7,25.55,34.35-6.93,22.33-30.34,7.05-41.76-2.57-2.7-2.27-5.36-4.63-7.99-7.03Z"/>
    <path class="cls-3" d="M10.39,100.52c.5-9.08,3.83-22.32,11.1-28.31,2.76-2.27,6.66-4.22,10.06-1.96,1.62,1.08,2.74,2.77,3.66,4.5,5.08,9.56,5.43,22.42,2.9,32.78-1.59,6.51-6.46,17.98-14.44,17.93-10.68-.07-13.72-16.9-13.28-24.94Z"/>
  </g>
</svg>