<?xml version="1.0" encoding="UTF-8"?><svg id="_圖層_4" xmlns="http://www.w3.org/2000/svg" viewBox="0 0 601 96"><defs><style>.cls-1{fill:#e5c12c;}</style></defs><path class="cls-1" d="M584,66.14c-.36,0-.72-.1-1.05-.3l-46.22-28.48-38.81,28.39c-.73.53-1.72.51-2.43-.05l-35.43-28.23-38.85,28.29c-.44.32-.98.44-1.51.35-.53-.09-1-.39-1.31-.84l-18.97-27.62-45.79,28.06c-.75.46-1.71.38-2.37-.21l-31.42-27.87-31.47,28c-.7.63-1.75.67-2.51.12l-38.88-28.31-36.99,28.15c-.79.61-1.91.53-2.62-.17l-27.99-27.82-36.87,28.12c-.8.61-1.92.53-2.63-.18l-27.85-27.88-33.21,28c-.76.64-1.88.63-2.62-.04l-31.22-27.79-22.17,27.54c-.69.86-1.95,1-2.81.3-.86-.69-1-1.95-.3-2.81l23.49-29.18c.34-.43.85-.69,1.39-.74.56-.04,1.09.14,1.5.5l31.5,28.03,33.29-28.07c.79-.67,1.97-.62,2.7.12l27.91,27.94,36.87-28.12c.8-.61,1.91-.53,2.62.17l27.99,27.82,36.79-28c.7-.53,1.67-.54,2.39-.03l38.78,28.23,31.59-28.11c.76-.67,1.9-.67,2.66,0l31.64,28.07,46.15-28.28c.91-.56,2.09-.3,2.69.57l18.88,27.49,38.42-27.97c.73-.53,1.72-.51,2.42.05l35.42,28.23,38.67-28.28c.66-.48,1.54-.51,2.23-.09l47.37,29.18c.94.58,1.23,1.81.65,2.75-.38.61-1.03.95-1.71.95Z"/></svg>