<?xml version="1.0" encoding="UTF-8"?><svg id="_圖層_1" xmlns="http://www.w3.org/2000/svg" viewBox="0 0 286 195"><defs><style>.cls-1{fill:#e5c12c;}.cls-2{fill:none;stroke:#e5c12c;stroke-linecap:round;stroke-linejoin:round;stroke-width:3.32px;}</style></defs><path class="cls-1" d="M115.94,81.85c-1.33-4.01-3.85-5.73-8.38-5.73s-7.93,2-9.93,5.94c-1.19,2.35-1.7,4.42-2.15,8.56,1.78-1.66,2.82-2.35,4.67-3.11,2.82-1.24,6-1.79,9.86-1.79,13.42,0,21.87,7.46,21.87,19.34s-10.08,20.3-24.68,20.3c-7.71,0-14.23-2.42-18.53-6.97-4.97-5.11-7.56-12.85-7.56-22.24,0-8.7,2.3-16.78,6.15-21.75,4.82-6.22,11.64-9.25,20.9-9.25,7.26,0,13.34,2.14,17.35,6.08,2.15,2.14,3.41,4.14,4.97,7.73l-14.53,2.9ZM96.74,105.4c0,5.11,4.37,8.77,10.3,8.77s10.53-3.66,10.53-8.91-3.85-8.56-10.23-8.56-10.6,3.38-10.6,8.7Z"/><path class="cls-1" d="M162.34,106.85c-1.48,8.42-4.67,14.71-10.82,21.55-3.19-4.14-5.49-6.28-9.41-8.98,3.56-3.45,5.56-6.49,7.04-10.77,2.22-6.15,2.96-14.23,2.96-33.08,0-5.32-.15-8.15-.44-10.7,3.19.28,5.19.34,9.71.34h33.43c4.74,0,6.97-.07,9.34-.34-.3,2-.37,3.8-.37,8.49v44.06c0,4.49-.96,6.91-3.26,8.36-2.08,1.31-4.89,1.79-10.9,1.79-2.22,0-4.89-.07-8.45-.21-.74-4.42-1.41-6.97-3.11-10.77,4.08.55,8.52.9,11.56.9,2.08,0,2.52-.28,2.52-1.52v-9.12h-29.8ZM192.14,97.39v-6.7h-28.32c-.15,2.83-.22,4.07-.45,6.7h28.76ZM192.14,81.23v-6.01h-28.24v6.01h28.24Z"/><ellipse class="cls-2" cx="143" cy="97.5" rx="94.9" ry="81.23"/></svg>