<?xml version="1.0" encoding="UTF-8"?><svg id="_圖層_1" xmlns="http://www.w3.org/2000/svg" viewBox="0 0 286 195"><defs><style>.cls-1{fill:#e5c12c;}.cls-2{fill:none;stroke:#e5c12c;stroke-linecap:round;stroke-linejoin:round;stroke-width:3.32px;}</style></defs><path class="cls-1" d="M92.14,123.91c-6.67,0-8.38.07-11.12.28.3-3.38.67-5.46,1.56-8.15,1.93-5.73,5.49-10.98,10.67-15.47,2.82-2.42,5.63-4.42,13.2-9.18,6.38-4.01,7.93-5.8,7.93-8.98s-3.19-5.52-7.93-5.52c-3.56,0-6.08,1.1-7.71,3.45-1.04,1.52-1.48,2.9-1.85,5.8l-15.57-1.52c1.11-6.01,2.45-9.05,5.41-12.29,4.22-4.63,10.97-7.11,19.64-7.11,10.01,0,17.64,3.11,21.35,8.7,1.63,2.42,2.45,5.11,2.45,8.08,0,5.04-2.22,9.32-6.82,12.85-2.45,2-3.19,2.49-10.75,7.39-6.45,4.14-9.19,6.56-10.9,9.6h17.27c5.56,0,8.97-.14,11.86-.48v13.05c-4.3-.34-7.41-.48-12.68-.48h-26.02Z"/><path class="cls-1" d="M162.34,106.85c-1.48,8.42-4.67,14.71-10.82,21.55-3.19-4.14-5.49-6.28-9.41-8.98,3.56-3.45,5.56-6.49,7.04-10.77,2.22-6.15,2.96-14.23,2.96-33.08,0-5.32-.15-8.15-.45-10.7,3.19.28,5.19.34,9.71.34h33.43c4.74,0,6.97-.07,9.34-.34-.3,2-.37,3.8-.37,8.49v44.06c0,4.49-.96,6.91-3.26,8.36-2.08,1.31-4.89,1.79-10.9,1.79-2.22,0-4.89-.07-8.45-.21-.74-4.42-1.41-6.97-3.11-10.77,4.08.55,8.52.9,11.56.9,2.08,0,2.52-.28,2.52-1.52v-9.12h-29.8ZM192.14,97.39v-6.7h-28.32c-.15,2.83-.22,4.07-.44,6.7h28.76ZM192.14,81.23v-6.01h-28.24v6.01h28.24Z"/><ellipse class="cls-2" cx="143" cy="97.5" rx="94.9" ry="81.23"/></svg>