<?xml version="1.0" encoding="UTF-8"?><svg id="_圖層_1" xmlns="http://www.w3.org/2000/svg" viewBox="0 0 986 143"><defs><style>.cls-1{fill:none;stroke:#b1f2cd;stroke-miterlimit:10;stroke-width:1.29px;}.cls-2{opacity:.95;}.cls-3{fill:#b1f2cd;}</style></defs><g class="cls-2"><path class="cls-3" d="M65.37,55.79c0-2.71-.04-3.62-.22-4.74h4.33c-.18,1.12-.22,2.08-.22,4.74v28.59c0,2.5.04,3.62.22,4.79h-4.38c.22-1.29.27-2.41.27-4.83v-11.53h-3.57c-.04,3.58-.13,4.87-.4,7.07-.54,3.75-1.47,6.37-3.35,9.11-1.21-1.33-1.79-1.79-3.04-2.5,1.7-2.25,2.5-4.49,2.9-7.82.22-1.87.27-2.75.31-5.87-1.34,0-2.01.04-3.04.17v-3.62c1.07.12,2.01.17,4.02.17h6.16v-4.83h-5.05c-1.43,0-2.23.04-3.26.08.09-.92.13-1.71.13-2.58v-6.28c0-1.71-.04-2.62-.18-3.5h4.06c-.13.87-.18,1.5-.18,3.2v5.83h4.47v-5.66ZM76.36,60.04c1.7,1.12,3.39,2.54,4.47,3.75,1.29-.62,1.96-.92,3.08-1.58-1.3-1.25-2.81-2.33-5-3.54l2.5-1.75c2.05,1.21,3.84,2.46,5.09,3.66,1.88-1.29,2.72-2.08,4.47-3.95h-11.93c-2.37,1.87-4.11,2.87-7.41,4.33-.58-1.12-.98-1.71-2.1-2.79,5.4-1.91,9.29-4.74,10.58-7.74l4.2.75q-.27.29-.62.75c-.36.46-.94,1.21-1.34,1.66h7.64c1.83,0,2.72-.04,3.53-.21l2.28,2.75q-.4.37-1.3,1.54c-5.05,6.24-12.24,10.19-22.69,12.44-.54-1.37-1.03-2.16-1.92-3.2,3.48-.58,5.27-1.04,7.95-1.96-1.25-1.25-2.59-2.33-4.24-3.33l2.77-1.58ZM91.72,70.94c1.88,0,3.13-.08,4.42-.25v3.75c-1.29-.17-2.59-.25-4.42-.25v10.65c0,2.66-1.56,3.62-5.9,3.62-.98,0-1.34,0-3.57-.12-.18-1.58-.4-2.37-.94-3.66,1.83.21,3.35.33,4.51.33,1.56,0,2.01-.25,2.01-1.08v-9.74h-12.55c-1.79,0-3.08.08-4.38.21v-3.66c1.3.17,2.37.21,4.38.21h12.55v-1.37c0-1.46-.04-2.29-.22-3.2h4.33c-.18.87-.22,1.67-.22,3.2v1.37ZM79.26,84.17c-1.88-3.04-3.17-4.66-5.54-6.91l3.04-2.04c2.37,2.21,3.75,3.79,5.81,6.62l-3.31,2.33Z"/><path class="cls-3" d="M136.39,65.32c-.31,1.91-.54,2.58-1.16,3.75-1.34,2.41-3.13,3.79-6.83,5.2-.58-1.08-1.25-1.96-2.1-2.7.27,1.12.36,1.79.36,2.62,0,2.71-1.12,4.29-3.39,4.91-.85.21-2.59.42-3.66.42h-.49c0-1.83-.13-2.66-.67-3.7.8.08,1.16.12,1.7.12,1.96,0,2.54-.5,2.54-2.21,0-3.08-1.16-5.62-4.02-8.74,2.19-3.79,3.13-5.83,4.33-9.45h-5.27v28.79c0,2,.09,3.5.27,4.74h-4.42c.18-1.12.27-2.75.27-5.12v-27.88c0-1.33-.04-2.37-.18-3.95.8.08,1.88.12,3.44.12h5c1.56,0,2.54-.04,3.35-.12l1.96,2.25c-.22.42-.36.79-.45,1.04-1.47,3.91-2.68,6.41-4.42,9.28,2.1,2.41,2.99,4.04,3.71,6.66,1.88-.58,2.55-.87,3.62-1.58,1.56-1.08,2.41-2.46,2.68-4.45h-2.72c-1.7,0-2.86.04-4.15.21v-3.62c1.07.17,1.92.21,4.15.21h6.74v-3.99h-4.6c-2.05,0-2.81.04-4.06.17v-3.62c1.03.21,2.05.25,4.06.25h4.6v-1.46c0-1-.09-1.75-.27-2.5h4.42c-.18.79-.27,1.54-.27,2.54v1.42h6.25c2.05,0,3.08-.04,4.15-.25v3.62c-1.21-.12-2.23-.17-4.15-.17h-6.25v3.99h8.13c2.05,0,3.04-.04,4.15-.21v3.62c-1.29-.17-2.46-.21-4.15-.21h-4.64v3.83c0,.71.31.87,1.83.87,3.39,0,3.53-.12,3.57-3.37,1.52.58,2.19.79,3.48,1-.54,4.95-1.12,5.41-7.37,5.41-3.04,0-4.2-.25-4.87-.96-.09.62-.13,1.29-.13,2.37v1.79h6.52c2.05,0,2.95-.04,4.11-.21v3.62c-1.16-.12-2.05-.17-4.11-.17h-6.52v4.79h8.26c2.1,0,3.21-.04,4.55-.21v3.7c-1.47-.17-2.95-.25-4.73-.25h-20.9c-2.14,0-3.39.08-4.73.25v-3.7c1.34.12,2.81.21,4.65.21h9.02v-4.79h-5.18c-2.05,0-2.9.04-4.15.17v-3.62c1.16.17,2.05.21,4.15.21h5.18v-1.79c0-1.21-.04-1.87-.22-2.7h4.06c-.09-.42-.13-.71-.13-1.33v-5.12h-3.89Z"/><path class="cls-3" d="M173.96,74.27c-.27,5.49-.71,8.66-1.88,12.28l-3.26-1.33c1.25-3.5,1.74-6.45,1.88-11.4l3.26.46ZM168.86,68.44c.62.12,1.25.17,2.01.17.13,0,.27,0,1.52-.04q1.38-1.83,2.28-3.12c-1.65-2.16-3.35-4.08-5.58-6.28l1.74-3.04c.76.83,1.03,1.08,1.65,1.75,1.52-2.5,2.99-5.7,3.3-7.2l3.71,1.46q-.27.37-1.65,3.04c-.85,1.58-1.96,3.45-3.13,5.2.98,1.08,1.21,1.33,1.88,2.16,3.08-4.87,3.48-5.62,3.97-7.24l3.35,1.79c-.45.54-.58.75-1.12,1.62-2.23,3.66-4.6,7.07-6.66,9.7,2.19-.08,2.95-.12,4.65-.29-.45-1.17-.67-1.75-1.38-3.29l2.68-.96c1.21,2.58,1.83,4.29,2.86,7.74l-2.86,1.04c-.18-.75-.22-1-.4-1.66-1.07.17-1.34.17-2.68.33v13.07c0,2.46.04,3.5.27,4.7h-4.06c.22-1.21.27-2.25.27-4.7v-12.73q-.85.08-4.55.37c-.67.04-1.03.08-1.65.21l-.4-3.79ZM182.89,73.39c.62,2.58,1.16,5.87,1.47,8.78l-2.99.79c-.18-3.08-.63-6.08-1.25-8.86l2.77-.71ZM189.54,83.71c-1.7,0-2.99.04-3.93.12.09-.87.13-1.96.13-3.41v-6.91c0-1.33-.04-2.37-.13-3.41,1.03.08,2.28.12,4.02.12h14.02c1.7,0,2.9-.04,3.93-.12-.09.96-.13,1.91-.13,3.41v6.78c0,1.54.04,2.5.13,3.54-.89-.08-2.14-.12-3.84-.12h-1.79c2.63,1.46,4.82,2.12,9.02,2.79-1.03,1.17-1.43,1.71-2.19,3.08-4.91-1.25-6.52-1.91-10.36-4.24l2.23-1.62h-8.62l2.54,1.58c-3.3,2.25-5.4,3.2-9.51,4.37-.98-1.54-1.21-1.83-2.28-2.79,4.02-.87,6.03-1.62,8.31-3.16h-1.56ZM205.93,53c2.01,0,3.21-.08,4.42-.25v3.12c-1.07-.12-2.1-.17-4.29-.17h-7.99v1.67h5.85c2.19,0,2.95-.04,4.15-.17v2.87c-.85-.12-1.56-.17-3.93-.17h-15.23c-2.32,0-3.04.04-3.88.17v-2.87c1.07.12,1.96.17,4.06.17h5.36v-1.67h-7.15c-1.96,0-2.99.04-4.06.17v-3.08c.98.17,2.23.21,4.02.21h7.19c-.04-.79-.09-1.46-.22-2.16h4.06c-.13.71-.18,1.25-.22,2.16h7.86ZM208.7,66.24c0,1.41.04,2.04.09,2.66-.98-.04-1.88-.08-3.08-.08h-18.22c-1.38,0-2.32.04-3.17.08.09-.71.09-1.29.09-2.66v-2.33c0-1.29,0-1.87-.09-2.58.71.08,1.47.08,3.26.08h18.13c1.88,0,2.41,0,3.08-.08-.04.71-.09,1.29-.09,2.66v2.25ZM187.76,63.82v2.62h3.8v-2.62h-3.8ZM189.19,74.02h14.78v-1.42h-14.78v1.42ZM189.19,77.64h14.78v-1.46h-14.78v1.46ZM189.19,81.26h14.78v-1.46h-14.78v1.46ZM194.63,66.45h3.75v-2.62h-3.75v2.62ZM201.42,66.45h3.8v-2.62h-3.8v2.62Z"/><path class="cls-3" d="M244.12,53.67c-.22.25-.22.29-.4.62-.04.04-.13.17-.27.42q-.22.42-.58,1.08c-1.65,3.2-4.51,7.12-7.46,10.15-2.1,2.21-3.66,3.54-6.74,5.78-.94-1.5-1.7-2.41-2.9-3.5,5-3.2,8.49-6.57,11.3-10.94,1.43-2.25,2.14-3.79,2.41-5.2l4.64,1.58ZM261.01,88.87c-1.21-2.25-1.61-3-2.46-4.41-7.82,1.12-15.59,1.87-24.34,2.33-3.48.17-3.8.21-5.14.42l-.85-4.45c1.07.04,2.32.08,3.62.08.76,0,.89,0,2.23-.04,4.33-6.91,8.26-15.31,9.29-19.81l4.87,1.25c-.31.54-.45.83-.85,1.83-2.1,5.04-5.81,12.28-8.49,16.56,7.77-.38,11.57-.67,17.6-1.5-2.14-3.16-3.26-4.62-6.12-7.86l3.62-1.91c4.38,5.12,8,10.19,10.94,15.31l-3.93,2.21ZM253.64,52.01c.67,2.21,2.72,5.53,5,8.24,2.59,3.04,5.22,5.2,9.47,7.78-1.3,1.33-1.92,2.16-2.86,3.79-3.84-2.79-5.58-4.29-7.91-6.74-2.64-2.79-5.09-6.24-6.83-9.53-.45-.96-.76-1.5-1.03-1.87l4.15-1.67Z"/><path class="cls-3" d="M293.3,60.12c-1.56,2.12-2.72,3.37-5.09,5.33-1.16-1.17-1.61-1.5-3.26-2.54,3.57-2.75,5.36-4.79,7.01-8.03.67-1.33,1.21-2.62,1.38-3.45l4.33,1.12q-.45.83-1.03,2c-.22.38-.67,1.29-1.16,2.12h7.01v-1.75c0-1.87-.04-2.75-.27-3.87h4.64c-.22,1.21-.31,2.12-.31,3.95v1.66h9.2c2.19,0,3.39-.08,4.73-.25v3.95c-1.21-.17-2.72-.25-4.69-.25h-9.25v6.03h12.46c2.14,0,3.57-.08,4.91-.25v3.99c-1.43-.17-2.95-.25-4.91-.25h-29.79c-1.88,0-3.39.08-4.87.25v-3.99c1.47.17,2.77.25,4.73.25h13.4v-6.03h-9.2ZM289.46,89c.18-1.08.27-2.71.27-4.45v-7.7c0-1.79-.04-2.71-.18-3.75,1.38.12,2.46.17,4.42.17h20.5c1.96,0,3.04-.04,4.42-.17-.13,1-.18,1.96-.18,3.75v7.7c0,2.04.09,3.29.27,4.45h-4.38v-1.91h-20.81v1.91h-4.33ZM293.79,83.63h20.86v-6.95h-20.86v6.95Z"/><path class="cls-3" d="M352.97,64.7c1.43,0,2.46-.04,3.21-.12v3.58c-1.07-.12-1.83-.17-3.21-.17h-1.61c.94,2.33,2.99,5.12,5.89,7.99-.76,1.12-1.03,1.67-1.7,3.2-2.23-2.62-2.99-3.83-4.42-7.03.09,1.33.18,4.66.18,5.49v7.03c0,2.12.09,3.45.27,4.54h-4.15c.18-1.12.22-2.5.22-4.54v-5.58c0-1.29.09-4.12.18-5.7-1.47,4.83-2.63,7.16-5.05,10.24-.71-1.62-1.12-2.29-2.05-3.33,2.86-3.04,5.09-7.2,6.57-12.32h-2.23c-1.52,0-2.5.04-3.35.17v-3.62c.8.12,1.56.17,3.31.17h2.63v-9.57c0-2-.04-3.2-.22-4.29h4.11c-.13.92-.22,2.29-.22,4.24v9.61h1.65ZM344.13,53.63c.98,2.46,1.74,4.95,2.41,8.28l-2.86,1.21c-.76-3.79-1.25-5.45-2.55-8.45l2.99-1.04ZM357.17,54.59c-.67,3.41-1.25,5.66-2.28,8.45l-2.68-1.08c.98-2.79,1.47-5.08,1.92-8.45l3.04,1.08ZM366.55,61.87h-4.11c-1.79,0-2.55.04-3.89.17v-3.04c1.12.12,2.1.17,3.93.17h4.06v-2.25h-4.6c-2.01,0-2.99.04-4.2.21v-3.37c1.25.17,2.41.25,4.42.25h4.38c0-1.33-.04-2-.27-3.04h4.24c-.22,1.04-.27,1.66-.27,3.04h5.98c2.1,0,3.17-.04,4.46-.25v3.37c-1.16-.17-2.41-.21-4.33-.21h-6.12v2.25h4.91c1.92,0,2.86-.04,3.88-.17v3.04c-1.16-.12-2.05-.17-3.93-.17h-4.87v2.33h7.01c2.14,0,3.26-.04,4.42-.25v3.45c-1.3-.21-2.32-.25-4.42-.25h-15.68c-2.14,0-3.21.04-4.51.25v-3.45c1.03.21,2.19.25,4.51.25h4.96v-2.33ZM362.35,84.59c0,2.08.09,3.5.27,4.62h-4.24c.18-1.33.22-2.29.22-4.62v-12.11c0-1.66-.04-2.46-.13-3.54,1.12.08,2.14.12,3.84.12h12.46c2.01,0,3.17-.04,4.06-.17-.13,1-.18,2.29-.18,4.33v11.94c0,2.87-1.12,3.7-5.05,3.7-1.03,0-2.23-.04-3.84-.17-.27-1.62-.4-2.12-.94-3.5,1.47.25,3.12.42,4.51.42,1.3,0,1.56-.21,1.56-1.08v-2.12h-12.55v2.16ZM374.9,74.35v-2.37h-12.55v2.37h12.55ZM374.9,79.55v-2.33h-12.55v2.33h12.55Z"/><path class="cls-3" d="M403.13,72.64c-1.74,0-2.86.08-4.06.25v-3.95c1.16.21,1.97.25,4.11.25h5.14v-.62c0-1.46-.09-2.16-.22-3.04h4.29c-.18.83-.22,1.54-.22,3.04v.62h4.2c1.96,0,2.95-.04,3.97-.21v3.87c-1.21-.17-2.05-.21-4.02-.21h-3.17c1.7,2.12,4.06,4.08,6.97,5.74-.94,1.17-1.29,1.71-2.05,3.16-2.86-2.04-4.15-3.45-6.12-6.41.09.79.09,1.08.13,1.83,0,.46,0,.83.04,1,0,.62.04,1.04.04,1.12v5.95c0,1.66.09,2.91.27,4.08h-4.38c.18-1.25.27-2.37.27-4.12v-5.49c0-.92.09-3.16.18-3.91-2.19,3.91-4.02,6.12-7.81,9.28-.76-1.46-1.3-2.21-2.5-3.41,3.88-2.58,6.74-5.45,8.8-8.82h-3.84ZM421.04,53.96c-.49.08-2.01.5-3.39.87-4.51,1.25-9.96,2.16-17.42,2.95-.45-1.37-.8-2.12-1.61-3.45,7.1-.17,16.57-1.83,19.56-3.41l2.86,3.04ZM402.95,58.79c1.38,2.37,1.96,3.7,2.9,6.49l-3.26,1.17c-.67-2.5-1.43-4.25-2.86-6.58l3.22-1.08ZM409.52,64.82c-.71-2.95-1.25-4.37-2.41-6.49l3.22-.92c1.25,2.41,1.7,3.62,2.46,6.53l-3.26.87ZM413.76,65.32c2.01-3.2,3.04-5.45,4.02-8.74l3.44,1.5c-1.79,4.2-2.68,5.91-4.46,8.53l-2.99-1.29ZM439.67,76.47q-.8.67-1.56,1.37c-1.74,1.66-5.09,4.24-7.37,5.74-3.48,2.33-6.25,3.66-10.67,5.24-.76-1.41-1.29-2.12-2.59-3.41,5.49-1.58,10.72-4.29,14.96-7.82,1.92-1.54,3.08-2.75,3.89-3.95l3.35,2.83ZM438.51,64.86c-.36.25-.76.54-1.65,1.33-1.29,1.08-4.15,3.29-5.49,4.2-2.5,1.66-4.73,2.83-8.48,4.45-.89-1.67-1.38-2.33-2.5-3.41,5.14-1.75,8.84-3.79,12.37-6.78,1.29-1.08,1.88-1.71,2.5-2.54l3.26,2.75ZM437.17,53.96q-.8.67-1.12.96c-.76.67-2.86,2.41-3.71,3.08-2.63,2-4.78,3.25-8.93,5.28-.71-1.41-1.29-2.25-2.46-3.33,4.06-1.5,7.5-3.54,10.41-6.12,1.21-1.08,1.83-1.75,2.23-2.5l3.57,2.62Z"/><path class="cls-3" d="M457.13,61.83c3.88,1.87,4.73,2.37,8.31,4.83l-2.28,3.25c-3.04-2.41-5-3.62-8.26-5.24l2.23-2.83ZM465.62,75.68c-2.05,4.66-4.46,9.11-6.92,12.69l-3.57-2.79c.49-.46.89-.87,1.52-1.71,2.23-2.87,3.8-5.7,5.76-10.44l3.21,2.25ZM458.96,51.34c3.62,2.16,5.18,3.29,7.82,5.49l-2.41,3c-2.86-2.54-4.15-3.5-7.9-5.83l2.5-2.66ZM478.75,57.5c-3.44.46-6.21.71-9.65.87-.31-1.29-.71-2.21-1.47-3.45,9.34-.17,19.92-1.87,24.03-3.87l2.77,3.54q-.67.17-1.88.46c-2.28.58-5.49,1.21-9.78,1.87v6.24h8.17c2.05,0,3.53-.08,4.78-.25v3.99c-1.29-.17-2.77-.25-4.73-.25h-8.22v6.08h6.97c1.56,0,2.68-.04,3.48-.17-.13.92-.18,2.08-.18,3.75v8.53c0,1.66.09,3.2.22,4.2h-4.24v-2.21h-15.9v2.21h-4.2c.13-1.12.22-2.62.22-4.25v-8.61c0-1.37-.04-2.5-.18-3.62.98.12,1.88.17,3.44.17h6.34v-6.08h-7.55c-1.88,0-3.39.08-4.78.25v-3.99c1.29.17,2.77.25,4.73.25h7.59v-5.66ZM473.12,83.34h15.9v-7.24h-15.9v7.24Z"/><path class="cls-3" d="M522.52,55.75c-3.21.29-4.55.38-7.86.58-.36-1.04-.63-1.54-1.43-2.83,8.08-.08,16.08-1.12,19.16-2.5l2.32,2.83q-.45.08-2.28.42c-2.9.58-4.2.79-6.3,1.08v2.75h4.96c2.05,0,3.17-.04,4.06-.21v3.25c-.76-.12-1.29-.17-3.35-.17h-5.67v2.16h4.55c1.88,0,2.72-.04,3.8-.12-.09.83-.13,1.54-.13,3.66v5.28c.04,2.08.09,3.37.09,3.83-1.29-.08-1.96-.08-4.02-.08h-4.29v2.25h4.2c2.23,0,3.13-.04,4.11-.17v3.29c-.85-.12-1.47-.17-3.3-.17h-5v2.37c2.5-.21,4.06-.42,8.17-.96v2.25c2.05-2.62,3.71-6.08,4.6-9.78.8-3.25,1.07-5.62,1.38-11.44h-.49c-1.7,0-2.63.04-3.89.17v-3.79c.94.12,1.88.17,3.48.17h1.03c.04-1.33.04-2.29.04-3.62,0-3.12-.04-3.79-.31-4.95h4.42q-.27,1.08-.36,8.57h4.06c1.83,0,2.9-.04,4.11-.17-.13,1.29-.13,1.58-.31,7.66-.27,10.74-.85,16.48-2.01,18.81-.76,1.54-2.14,2.12-5,2.12-.94,0-2.86-.12-4.02-.21-.09-1.46-.31-2.41-.8-3.83,2.19.38,3.21.5,4.2.5,1.52,0,2.01-.25,2.37-1.17.54-1.33.98-4.74,1.25-9.53.18-3.41.22-4.62.31-10.74h-4.24c-.27,6.03-.8,10.07-1.74,13.52-1.29,4.74-2.99,7.99-6.43,12.11-.85-.75-2.41-1.71-3.75-2.29.63-.58.85-.79,1.3-1.25-6.57.96-7.33,1.04-17.82,1.96-1.12.08-1.61.17-2.55.33l-.71-3.83c.89.08,1.34.08,2.05.08,1.74,0,4.64-.12,8.04-.37v-2.71h-4.69c-1.38,0-2.99.08-4.15.17v-3.33c1.12.17,2.23.21,4.15.21h4.69v-2.25h-4.02c-1.88,0-2.95.04-4.24.12.09-.96.13-1.87.13-3.91v-5.16c0-2-.04-2.66-.13-3.75,1.21.08,2.41.12,4.29.12h3.97v-2.16h-5.67c-1.92,0-2.86.04-4.11.21v-3.29c1.21.17,2.32.21,4.11.21h5.67v-2.33ZM517.92,65.82v2.21h4.6v-2.21h-4.6ZM517.92,70.65v2.33h4.6v-2.33h-4.6ZM526.14,68.03h4.73v-2.21h-4.73v2.21ZM526.14,72.98h4.73v-2.33h-4.73v2.33Z"/><path class="cls-3" d="M592.6,63.12c.89,2.95,1.88,4.95,3.62,6.99,1.96,2.37,3.93,3.83,7.5,5.53-1.65,1.46-2.32,2.29-2.81,3.5-3.26-1.91-5.32-3.62-7.37-6.12-1.61-1.96-2.64-3.7-3.62-6.33-.98,2.62-1.83,4.29-3.3,6.2-2.1,2.79-4.06,4.49-7.55,6.45-.89-1.37-1.52-2.08-2.81-3.2,6.16-3.25,9.29-6.82,11.21-13.02h-11.26v20.81c0,2.33.04,3.66.22,4.91h-4.64c.22-1.46.31-2.95.31-4.91v-20.56c0-1.58-.09-2.71-.22-3.95,1.43.17,2.77.21,4.51.21h11.75c-.22-1.46-.27-2.41-.36-4.62h-4.47c-1.61,0-2.54.04-3.62.21v-3.83c.98.17,1.88.21,3.66.21h5.18c1.47,0,2.41-.04,3.22-.17-.09.79-.09,1.41-.09,2.66,0,2.08.09,3.87.27,5.53h11.48c1.88,0,3.13-.04,4.6-.21-.13,1.17-.18,2.29-.18,3.95v21.1c0,3.16-1.12,3.83-6.65,3.83-1.61,0-2.59-.04-4.64-.17-.13-1.66-.36-2.5-.98-3.91,2.14.37,4.11.54,6.03.54s2.19-.17,2.19-1.21v-20.43h-11.17Z"/><path class="cls-3" d="M634.19,76.85c-1.88,1.08-2.86,1.58-5.31,2.71-.58-1.37-.94-1.96-2.05-3.37,3.57-1.33,7.32-3.25,10.36-5.24,1.83-1.21,3.97-2.91,5.76-4.62,1.03-.96,1.47-1.42,2.28-2.62h3.88c1.92,2.75,4.87,5.29,8.71,7.62,2.99,1.79,6.3,3.33,9.96,4.58-.98,1.25-1.34,1.91-2.05,3.7-2.46-1.08-2.63-1.17-5.63-2.79v8.41c0,1.54.09,2.71.27,3.95h-4.24v-1.91h-17.96v1.91h-4.24c.18-1.29.27-2.54.27-3.99v-8.32ZM644.55,53.38c0-1-.04-1.71-.27-2.62h4.69c-.22.87-.27,1.58-.27,2.62v.83h12.77c1.83,0,3.21-.04,4.78-.17-.13.92-.18,1.87-.18,3v2.87c0,1.21.04,2.04.18,3h-4.06v-5.2h-30.01v5.2h-4.11c.18-1,.22-1.79.22-3v-2.87c0-1.08-.04-2-.18-3,1.52.12,2.95.17,4.73.17h11.7v-.83ZM643.39,60.5c-2.23,2.5-3.48,3.62-5.89,5.41-2.14,1.58-3.39,2.33-6.03,3.62-.94-1.25-1.47-1.83-2.81-2.91,2.5-1,3.75-1.62,5.63-2.83,2.28-1.5,3.53-2.62,5.76-5.08l3.35,1.79ZM638.16,83.8h17.96v-6.45h-17.96v6.45ZM655.49,74.02c-3.84-2.58-5.58-4.12-8.22-7.28-1.65,1.83-2.77,2.91-4.91,4.7-.94.75-1.52,1.17-3.66,2.58h16.79ZM653.7,58.58c4.2,4.04,6.65,5.58,12.15,7.62-.94,1.17-1.25,1.66-2.1,3.29-5.98-2.58-8.31-4.16-13.22-8.9l3.17-2Z"/><path class="cls-3" d="M689.44,84.84c0,3.37-.94,4.79-3.88,5.87l-1.43-1.83c2.41-.79,2.86-1.42,2.9-4.04h-3.31v-5.28h5.72v5.28Z"/><path class="cls-3" d="M759.65,61.45c-.8-.12-1.25-.17-2.95-.21-.58,7.37-1.88,11.98-4.69,17.02,2.55,2.95,4.91,4.91,8.58,7.07-.89.92-1.38,1.58-2.5,3.7-3.97-2.83-5.85-4.54-8.22-7.49-2.5,3.2-5.18,5.45-8.93,7.61-.85-1.37-1.38-2.08-2.54-3.12,3.84-1.87,6.83-4.37,9.2-7.7-1.79-2.95-2.95-5.91-3.89-9.65-.76,1.21-1.03,1.58-1.88,2.66-.58-1.17-1.07-1.83-1.79-2.66-.18,5.74-.22,6.53-.62,10.03-.94,8.07-2.32,9.99-7.01,9.99-1.07,0-2.46-.04-4.15-.17-.13-1.46-.31-2.29-.8-3.66,2.14.29,3.08.37,4.42.37,2.28,0,2.72-.54,3.39-3.75.58-3.04.85-7.37.98-15.35h-11.25c-.58,1.25-.8,1.67-1.38,2.62.85.04,1.21.04,2.14.04h4.2c1.29,0,1.7,0,3.35-.12-.09.87-.13,1.66-.13,2.7v6.91c0,1.25,0,1.83.09,2.54-1.83-.08-1.88-.08-3.48-.08h-3.89v2.58h-3.35c.13-.87.18-1.75.18-3.08v-8.95c0-.33,0-.54-.04-1.04-.85,1.29-1.25,1.79-2.41,3.12-1.07-1.75-1.25-2-2.5-3.25,2.86-2.91,4.56-6.08,5.36-9.82l3.98.79q-.49,1.29-.67,1.79h10.18c1.79,0,2.68-.04,3.8-.17-.18.96-.22,1.87-.27,2.87,0,.21,0,.25-.04,1.75,1.92-2.54,3.66-6.62,4.78-11.11.54-2.21.85-4.12.85-5.33l4.24.71c-.22.58-.27.79-.63,2.37-.36,1.79-.58,2.58-.98,3.91h7.1c2.14,0,3.08-.04,4.2-.25v3.79ZM724.28,53.3c0-.87-.04-1.5-.18-2.21h4.06c-.09.67-.13,1.25-.13,2.21v1.33h5.14v-1.21c0-.92-.04-1.54-.18-2.33h4.11c-.09.71-.13,1.41-.13,2.33v1.21h1.25c1.92,0,2.9-.04,3.79-.17v3.54c-1.07-.12-1.92-.17-3.79-.17h-1.25v1.21c0,1,.04,1.58.13,2.25h-4.11c.13-.67.18-1.33.18-2.25v-1.21h-5.14c0,.87.04,1.46.13,2.12h-4.06c.13-.75.18-1.25.18-2.12h-1.79c-1.96,0-2.99.04-3.79.17v-3.54c.89.12,1.88.17,3.79.17h1.79v-1.33ZM725.88,77.76h4.06v-6.03h-4.06v6.03ZM747.28,61.24c-.4,1.04-.67,1.79-1.25,3.08.94,4.7,1.83,7.28,3.62,10.49,1.96-4.2,2.9-7.99,3.26-13.57h-5.63Z"/><path class="cls-3" d="M776.09,57.87c1.07.17,1.88.21,3.57.21h8.13c1.88,0,2.68-.04,3.57-.17v3.45c-1.07-.08-1.65-.12-3.3-.12h-8.4c-1.61,0-2.55.04-3.57.17v-3.54ZM777.61,51.96c1.07.17,1.79.21,3.44.21h6.07c1.65,0,2.32-.04,3.44-.21v3.5c-1.25-.12-1.96-.17-3.44-.17h-6.07c-1.43,0-2.41.04-3.44.17v-3.5ZM777.7,88.79c.13-1.29.22-2.62.22-4.04v-5.83c0-1.5-.04-2.25-.18-3.33,1.07.12,1.92.17,3.57.17h6.16c1.65,0,2.41-.04,3.12-.12-.09.83-.13,1.58-.13,3.08v6.24c0,1.46.04,2.33.18,3.29h-3.71v-1.5h-5.4v2.04h-3.84ZM777.74,63.95c.85.08,1.43.12,2.9.12h6.92c1.43,0,2.05-.04,2.81-.12v3.33c-.89-.08-1.52-.12-2.81-.12h-6.92c-1.38,0-2.01.04-2.9.12v-3.33ZM777.74,69.73c.8.08,1.56.12,2.9.12h6.88c1.43,0,2.01-.04,2.86-.12v3.33c-.85-.08-1.52-.12-2.9-.12h-6.88c-1.34,0-2.05.04-2.86.12v-3.33ZM781.54,83.71h5.4v-4.95h-5.4v4.95ZM796.94,56.83c-2.14,0-2.99.04-4.2.21v-3.33c1.34.21,2.05.25,4.2.25h4.96c0-1.62-.04-2.16-.27-3.25h4.29c-.22,1.04-.27,1.71-.27,3.25h6.07c2.23,0,2.95-.04,4.29-.25v3.33c-1.16-.17-2.28-.21-4.29-.21h-6.07v2.21h4.87c1.92,0,2.81-.04,3.88-.17v3.08c-1.21-.12-2.1-.17-3.93-.17h-4.82v2.29h6.83c2.1,0,3.17-.04,4.47-.25v3.41c-1.34-.21-2.41-.25-4.47-.25h-16.12c-2.14,0-3.17.04-4.51.25v-3.41c1.12.21,2.23.25,4.51.25h5.54v-2.29h-4.15c-1.74,0-2.72.04-3.88.17v-3.08c1.12.12,2.1.17,3.93.17h4.11v-2.21h-4.96ZM797.57,84.34c0,2.04.09,3.54.27,4.66h-4.24c.18-1.12.22-2.33.22-4.66v-11.94c0-1.67-.04-2.46-.13-3.54,1.21.08,2.01.12,3.8.12h12.55c2.1,0,3.13-.04,4.06-.17-.13,1.04-.18,2.25-.18,4.33v11.82c0,2.95-1.03,3.7-5.09,3.7-1.12,0-2.41-.04-3.84-.17-.18-1.42-.4-2.25-.89-3.41,1.56.25,3.39.42,4.56.42s1.47-.25,1.47-1.21v-2.08h-12.55v2.12ZM810.12,74.27v-2.37h-12.55v2.37h12.55ZM810.12,79.39v-2.29h-12.55v2.29h12.55Z"/><path class="cls-3" d="M837.24,55.13c0-1.54-.09-2.66-.22-3.7h4.15c-.18,1-.22,2.16-.22,3.75v.71h7.14v-.75c0-1.71-.04-2.66-.22-3.7h4.11c-.13,1.04-.22,2.12-.22,3.75v.71c1.34,0,2.55-.08,3.31-.21v3.58c-.8-.12-1.88-.17-3.08-.17h-.22v16.73c1.21,0,2.23-.08,3.04-.21v3.54c-.94-.08-2.1-.12-3.88-.12h-14.43c-1.79,0-2.59.04-3.53.17v-3.58c.85.17,1.7.21,3.44.21h.85v-16.73c-2.05,0-2.9.04-3.71.17v-3.58c.8.12,1.79.21,3.71.21v-.75ZM842.91,81.63c-2.41,3.62-3.57,4.87-6.92,7.45-.94-1.29-1.47-1.83-2.86-2.79,3.39-2.25,4.82-3.66,6.56-6.49l3.22,1.83ZM848.09,62.45v-3.37h-7.14v3.37h7.14ZM848.09,68.94v-3.45h-7.14v3.45h7.14ZM848.09,75.81v-3.83h-7.14v3.83h7.14ZM848.44,79.88c1.47,2.08,2.01,2.66,4.24,4.37-1.25.87-1.74,1.33-2.86,2.54-1.79-1.58-2.81-2.79-4.33-5.12l2.95-1.79ZM860.1,75.85c-.58,6.08-1.92,9.7-5.05,13.4-1.07-1.29-1.79-1.91-3.17-2.79,2.37-2.54,3.44-4.66,4.02-8.36.62-3.54.89-10.03.89-20.06,0-2.79-.04-3.87-.22-5.2,1.29.12,2.5.17,4.69.17h6.39c2.28,0,3.22-.04,4.56-.17-.13,1-.18,2.29-.18,4.37v27.75c0,3-1.21,3.91-5.18,3.91-1.12,0-1.92-.04-3.57-.12-.27-1.75-.4-2.25-1.03-3.91,1.29.25,3.17.46,4.06.46.98,0,1.21-.04,1.43-.12.31-.17.45-.38.45-.79v-8.53h-8.08ZM860.55,65.95c-.04,2.83-.13,4.54-.22,6.58h7.86v-6.58h-7.64ZM868.19,56.42h-7.59v6.2h7.59v-6.2Z"/><path class="cls-3" d="M895.21,75.43c0-1.58,0-2.08.09-4.62-1.34,1.62-1.88,2.12-3.8,3.58-.76-1.87-.98-2.33-1.92-3.62,3.08-2.04,5.22-4.04,7.73-7.24,1.03-1.33,1.83-2.58,2.32-3.7l3.44,2.08c-.36.46-.62.79-1.25,1.71-.85,1.29-1.52,2.12-2.72,3.54v17.02c0,2.29.04,3.66.22,4.87h-4.38c.18-1.21.27-2.71.27-4.91v-8.7ZM902.85,52.8q-.36.37-1.43,1.54c-2.81,3.16-5.63,5.49-9.2,7.66-.67-1.37-1.21-2.21-2.23-3.2,4.46-2.46,7.81-5.33,9.51-8.28l3.35,2.29ZM908.48,58.79c-1.96,0-3.04.04-4.33.21v-3.75c1.16.17,2.5.25,4.46.25h5.4v-1.37c0-1.25-.09-2.16-.27-3.29h4.47c-.18,1.08-.22,2-.22,3.29v1.37h6.12c1.92,0,3.22-.08,4.42-.25v3.75c-1.16-.17-2.41-.21-4.38-.21h-6.16v4.7h7.82c1.92,0,3.44-.08,4.69-.25v3.79c-1.16-.12-2.59-.21-4.64-.21h-1.34v4.12h1.38c2.01,0,3.3-.04,4.6-.21v3.83c-1.21-.17-2.68-.25-4.55-.25h-1.43v10.53c0,2.95-1.38,3.79-6.12,3.79-1.03,0-2.5-.08-4.15-.17-.18-1.58-.45-2.54-.98-3.87,1.79.29,3.93.5,5.13.5,1.83,0,2.19-.17,2.19-1v-9.78h-13.8c-1.88,0-3.26.08-4.51.25v-3.83c1.21.12,2.41.21,4.33.21h13.98v-4.12h-13.31c-1.92,0-3.12.08-4.33.21v-3.75c1.21.12,2.41.21,4.33.21h6.74v-4.7h-5.54ZM911.74,84.21c-2.05-3.08-3.53-4.74-6.34-7.16l3.08-2.08c2.68,2.37,3.93,3.66,6.52,6.87l-3.26,2.37Z"/></g><rect class="cls-1" x="23.73" y="29.82" width="938.55" height="83.37" rx="12" ry="12"/></svg>