<?xml version="1.0" encoding="UTF-8"?><svg id="_圖層_1" xmlns="http://www.w3.org/2000/svg" viewBox="0 0 194 165"><defs><style>.cls-1{fill:#ed7921;}.cls-2{fill:#fff;}</style></defs><path class="cls-2" d="M60.33,98.37c-18.97,7.84-5.47,25.87,11.47,24.97,21.98-1.17,21.56-20.79,2.92-25.58-5.64-1.45-10.53-.99-14.39.61Z"/><path class="cls-1" d="M139.6,57.45c-3.01-1.62-6.33-2.69-9.68-3.35-6.07-1.2-13.38-.06-14.59,7.28-1,6.07,1.91,13.18,4.71,18.41,1.93,3.59,4.47,6.98,7.97,9,4.12,2.38,9.39,2.57,13.66.49,10.44-5.08,11.46-19.5,3.8-27.43-1.72-1.78-3.72-3.23-5.88-4.39Z"/></svg>