<?xml version="1.0" encoding="UTF-8"?><svg id="_圖層_4" xmlns="http://www.w3.org/2000/svg" viewBox="0 0 638 179"><defs><style>.cls-1{fill:#fff;}.cls-2{fill:#005225;}</style></defs><circle class="cls-1" cx="89.5" cy="88.5" r="72.5"/><circle class="cls-1" cx="181.7" cy="88.5" r="72.5"/><circle class="cls-1" cx="273.9" cy="88.5" r="72.5"/><circle class="cls-1" cx="366.1" cy="88.5" r="72.5"/><circle class="cls-1" cx="458.3" cy="88.5" r="72.5"/><circle class="cls-1" cx="550.5" cy="88.5" r="72.5"/><path class="cls-2" d="M71.09,70.09c-1.11-1.83-1.66-2.58-3.38-4.58l9.66-2.23c1.85,2.52,3.32,4.81,4.37,6.82h7.69c1.72-2.18,2.64-3.78,3.88-6.7l10.03,2.12c-1.23,1.89-2.03,3.04-3.32,4.58h6.46c3.38,0,4.92-.06,6.95-.34v8.48c-1.85-.23-3.44-.29-6.95-.29h-41.64c-3.38,0-5.11.06-7.01.29v-8.48c2.21.29,3.81.34,7.01.34h6.27ZM69.37,111.17c0,2.98.06,4.18.31,6.25h-9.66c.25-2.06.37-4.01.37-6.88v-25.33c0-2.75-.06-3.84-.25-5.21,1.66.11,3.2.17,5.6.17h14.52c2.89,0,4-.06,5.35-.17-.12,1.43-.18,2.63-.18,5.44v24.92c0,5.39-1.66,6.7-8.73,6.7-.68,0-1.66,0-2.95-.06-.61-3.72-.86-4.58-2.03-7.51,1.78.17,2.4.23,3.45.23,1.11,0,1.35-.23,1.35-1.2v-2.52h-7.14v5.16ZM76.5,90.03v-2.58h-7.14v2.58h7.14ZM76.5,99.31v-2.58h-7.14v2.58h7.14ZM98.22,81.32c-.18,1.55-.25,3.04-.25,5.5v12.89c0,2.92.06,4.12.25,5.9h-9.41c.19-2.01.25-3.04.25-5.79v-13.06c0-2.41-.06-3.61-.25-5.44h9.41ZM111.07,79.89c-.25,1.78-.31,3.32-.31,5.96v23.38c0,3.55-.49,5.16-1.91,6.25-1.78,1.32-3.63,1.66-9.41,1.66q-.68,0-5.1-.06c-.62-3.44-1.17-5.1-2.58-8.25,3.32.29,5.17.4,7.38.4,2.09,0,2.46-.23,2.46-1.6v-22c0-2.98-.06-4.07-.25-5.73h9.72Z"/><path class="cls-2" d="M157.69,74.27c-3.2-2.35-5.41-3.67-9.6-5.79l7.69-5.44c4.98,2.23,8,4.07,13.1,7.79l-4,3.44h7.38c3.01,0,5.41-.11,7.32-.34v8.88c-2.15-.17-4.67-.29-7.26-.29h-8.06v8.08h6.89c2.77,0,4.86-.11,6.89-.29v8.65c-2.03-.17-4.37-.29-6.89-.29h-6.89v9.17h8.3c2.52,0,5.54-.11,7.81-.34v8.94c-1.97-.23-4.67-.34-7.81-.34h-25.4c-3.08,0-6.09.11-7.94.34v-8.94c2.28.23,5.23.34,7.75.34h7.69v-9.17h-5.84c-2.58,0-5.17.11-7.13.29v-8.65c2.03.17,4.24.29,7.13.29h5.84v-8.08h-6.83c-2.46,0-4.24.06-6.15.17-1.97,2.64-3.38,4.53-4.24,5.56v23.55c0,2.46.06,4.3.25,5.96h-9.72c.25-2.06.37-3.95.37-6.65v-10.2c0-.97,0-2.35.06-4.07-.86.86-1.17,1.15-3.14,2.64-.98-3.67-1.78-5.79-3.44-8.94,5.6-3.5,10.7-8.71,13.22-13.52l5.72,3.78v-6.88c1.91.23,4.24.34,7.13.34h9.78ZM142.43,68.31q-.49.46-2.52,2.35c-4.43,4.12-9.41,7.91-13.29,10.14-1.41-3.27-2.52-5.21-4.43-7.79,5.72-2.92,10.09-6.36,12.79-10.08l7.44,5.39Z"/><path class="cls-2" d="M214.33,82.81h-5.17c-1.66,0-2.95.06-4.12.17v-7.11c1.17.17,2.28.23,4.12.23h5.17v-3.04h-11.38v5.73c0,21.31-1.6,30.02-7.13,39.36-2.52-3.32-4.68-5.39-7.69-7.45,4.61-7.16,5.66-13.92,5.66-37.87,0-3.27-.12-5.56-.37-7.85,2.15.23,3.57.29,7.13.29h37.03c3.69,0,5.11-.06,6.95-.29-.25,2.41-.31,4.01-.31,7.33v37.7c0,3.09-.92,5.04-2.83,5.96-1.48.74-4,1.09-8.37,1.09-1.42,0-2.58,0-5.11-.06-.43-2.41-.74-3.67-1.6-5.84h-12.67v2.64h-9.23c.18-1.43.31-2.81.31-4.76v-10.77c0-1.83-.06-2.75-.25-3.95,2.21.11,2.64.11,4.49.11h18.39c2.89,0,3.51,0,4.86-.11-.18,1.38-.25,2.35-.25,4.18v10.37h.8c2.03,0,2.28-.11,2.28-1.15v-34.67h-11.81v3.04h5.41c1.78,0,2.95-.06,4.18-.23v7.11c-1.35-.12-2.52-.17-4.18-.17h-5.41v2.52h5.11c2.83,0,4.24-.06,5.54-.23v7.51c-1.48-.17-2.83-.23-5.47-.23h-19.07c-2.64,0-4.06.06-5.47.23v-7.51c1.29.17,2.58.23,5.47.23h4.98v-2.52ZM213.59,104.24h9.53v-3.09h-9.53v3.09Z"/><path class="cls-2" d="M276.75,98.79c-2.03,0-3.63.06-5.04.17v-4.58c1.05.12,2.71.17,4.12.17-1.23-1.55-1.97-2.29-3.57-3.72,6.64-.52,8.79-1.26,10.09-3.38h-3.94v2.23h-7.44c.18-.63.25-1.26.25-2.23v-1.32c0-1.15-.06-1.72-.18-2.75,2.09.06,3.63.12,6.15.12h10.15v-1.32h-7.57c-3.14,0-4,0-5.41.11.12-1.6.18-2.86.18-5.27v-6.53c0-2.35-.06-3.78-.18-5.16,1.41.11,2.83.17,5.41.17h5.35c.62-.97.8-1.32,1.11-2.41l9.41.69c-.55.8-.68.97-1.23,1.72h9.84c2.58,0,4-.06,5.41-.17-.12,1.43-.18,2.52-.18,5.16v6.53c0,2.58.06,4.01.18,5.27-1.48-.11-2.34-.11-5.41-.11h-7.87v1.32h10.7c2.95,0,4.37-.06,5.97-.17-.12.75-.18,1.49-.18,2.69v1.2c0,1.32.06,1.72.18,2.35h-1.97c-.37,2.18-.86,2.87-2.46,3.32-1.23.34-4.06.52-8.49.52-1.05,0-1.91,0-3.57-.11,0,.46-.06.63-.06,1.26h11.44c2.21,0,3.69-.06,4.92-.17v4.58c-1.48-.11-2.83-.17-4.92-.17h-16.18c-.18.52-.25.69-.49,1.32h13.41c3.26,0,4.18,0,5.41-.12q-.12.69-.49,3.09c-.43,3.04-1.23,4.36-3.26,5.44,3.57-.23,4.8-.34,8.12-.74-1.17,3.44-1.6,5.21-2.09,8.94-4.18.12-13.96.23-22.39.23-11.2,0-14.09-.23-17.1-1.26-2.4-.8-3.88-1.78-6.03-3.9-2.03,1.78-3.44,2.81-6.64,4.87-.62.4-.74.52-1.23.86l-3.94-9.11c1.72-.57,3.88-1.66,6.52-3.44v-7.22h-1.78c-1.6,0-2.4.06-3.75.23v-8.08c1.35.17,2.4.23,4.98.23h5.04c1.78,0,3.14-.06,4.37-.17-.12,1.49-.18,2.81-.18,5.39v8.65c1.66,2.35,3.14,3.38,5.97,4.24-1.35-1.83-2.28-2.87-4.37-4.7,3.57-.4,5.35-.8,7.26-1.66s2.77-1.66,3.51-3.09h-5.84ZM261.13,76.74c3.57,2,6.15,3.72,9.72,6.53l-5.35,6.59c-3.26-2.92-5.66-4.7-9.78-7.1l5.41-6.02ZM261.81,63.67c4,2.18,6.34,3.72,9.96,6.59l-5.54,6.36c-3.51-3.09-5.6-4.58-9.84-7.1l5.41-5.84ZM288.81,103.84c-2.28,2.35-4.98,3.84-8.86,4.99,2.46.23,4.31.29,7.75.29,1.35,0,3.26,0,4.74-.06-.31-1.43-.74-2.46-1.66-3.9,2.58.29,4.31.4,6.83.4,2.34,0,2.46-.06,2.71-1.72h-11.5ZM287.46,94.55c0-.97,0-1.49-.18-2.12h4.92c-.49-.46-.62-.8-.62-1.55v-3.44h-1.05c-.92,2.12-1.41,2.75-2.71,3.9-1.72,1.49-3.32,2.41-5.84,3.21h5.47ZM282.97,70.43h17.9v-1.2h-17.9v1.2ZM282.97,74.39h17.9v-1.2h-17.9v1.2ZM282.97,78.34h17.9v-1.26h-17.9v1.26ZM299.7,89.11c0,.57.31.8,1.35.8,1.23,0,1.54-.29,1.54-1.49v-.29c.98.29,1.35.4,2.46.57v-1.26h-5.35v1.66Z"/><path class="cls-2" d="M326.94,87.34c.8-.86,1.23-1.38,1.6-1.89-2.15-3.27-4.37-6.25-6.77-8.88l4.12-7.11,1.48,1.72c1.78-3.04,3.14-6.13,3.57-8.25l7.87,2.75q-.18.4-2.4,4.53c-1.17,2.18-2.64,4.53-4.24,6.82.55.75.74,1.03,1.29,1.78,3.01-4.58,5.11-8.14,5.54-9.45l6.58,3.09v-2.29c0-2.29-.06-3.38-.18-4.98,1.48.11,2.89.17,5.11.17h21.96c3.26,0,5.23-.06,6.83-.23-.25,1.83-.31,3.67-.31,6.76v39.25c0,2.81-.92,4.64-2.77,5.39-1.17.52-3.51.74-6.77.74-1.11,0-3.32-.06-4.3-.11-.06-2.81-.31-4.41-1.11-6.7h-.62c-2.58,0-4.06-.29-5.04-.92-1.35-.8-2.03-2.23-2.03-4.18v-7.28h-2.65v12.55c0,3.72.06,5.1.31,6.99h-8.8c.25-1.95.37-3.78.37-6.99v-16.16l-4,1.32-.31-1.89-3.01.23v16.33c0,3.67.06,5.21.37,7.16h-8.3c.31-2.18.37-3.61.37-7.16v-15.76c-1.04.06-1.91.11-2.4.11-1.17.11-1.91.17-2.21.17-1.84.11-2.52.17-3.26.29l-.74-8.14c.98.17,1.72.23,3.32.23h1.54ZM329.4,96.85c-.25,9.34-.55,12.49-1.72,18.11l-5.9-2.92c1.29-5.16,1.72-8.48,1.91-15.81l5.72.63ZM345.57,73.7q-.31.46-.98,1.43c-2.46,3.78-5.47,7.74-9.1,11.98q2.34-.11,4.49-.29c-.25-1.2-.43-1.89-.98-3.67l4.31-1.55c1.11,3.44,1.54,4.87,2.28,7.96v-15.87ZM343.61,96.73c.43,3.38.92,9.57,1.11,13.64l-4.86,1.2c0-6.7-.18-9.91-.74-13.92l4.49-.92ZM361.57,80.86c1.35-2.81,2.09-4.87,2.65-7.51l5.91,1.66c-.8,2.12-1.35,3.38-2.58,5.84h3.26v-7.91h-17.1v7.91h2.77c-1.05-3.21-1.35-3.78-2.46-5.73l5.47-1.78c1.17,2,1.66,3.21,2.58,5.96l-4.74,1.55h4.24ZM358.12,87.74h-4.43v3.38h4.43v-3.38ZM363.54,101.95c0,.86.31.97,2.46.97,1.04,0,2.28-.11,3.2-.23v6.88c1.35,0,1.6-.17,1.6-.97v-10.54h-7.26v3.9ZM370.79,91.12v-3.38h-4.8v3.38h4.8Z"/><path class="cls-2" d="M388.32,105.67c2.89-.34,6.46-.97,11.19-1.95.55-1.89.86-3.04.92-3.38l-7.38,1.95c-.68-7.51-1.48-11.97-3.32-18.68l8.06-1.89c1.66,6.65,2.09,9.4,2.95,17.59,1.17-4.98,1.66-7.39,2.46-12.72.49-3.67.62-4.41.62-5.44l8.61,1.6q-.31,1.26-1.35,6.02c-.92,4.58-1.29,5.9-3.32,13.01,1.42-.4,2.15-.63,4.24-1.32l-.06,8.19c-4.55,1.49-9.84,2.86-18.33,4.93-1.72.4-1.91.46-3.38.86l-1.91-8.77ZM396.8,68.26c0-1.72-.06-2.87-.31-4.01h9.6c-.25,1.15-.31,2.12-.31,3.95v3.72h3.01c1.78,0,2.95-.06,4.06-.23v8.37c-1.66-.11-3.51-.23-4.92-.23h-13.41c-1.54,0-3.32.11-5.29.29v-8.48c1.54.17,3.08.29,4.86.29h2.71v-3.67ZM438.63,87.97c2.03,0,3.69-.06,5.72-.29-.25,2.29-.31,4.18-.31,6.99v14.09c0,3.72.12,6.25.37,8.65h-9.66v-2.35h-12.18v2.35h-9.53c.25-2,.31-3.95.31-8.02v-16.44c0-2.18-.06-3.84-.25-5.21,1.48.17,3.08.23,5.66.23h3.75v-16.79c0-3.9-.06-5.44-.37-7.56h10.09c-.31,2.12-.37,3.55-.37,7.51v.57h7.87c2.58,0,4.55-.11,6.34-.34v8.59c-1.72-.23-3.51-.29-6.34-.29h-7.87v8.31h6.77ZM422.58,107.1h12.18v-11.17h-12.18v11.17Z"/><path class="cls-2" d="M502.22,106.36c3.32,1.95,6.58,3.15,11.69,4.3-2.09,2.52-3.38,4.3-5.35,7.45-6.09-2.41-9.1-4.07-13.66-7.39-4.98,3.67-7.63,5.04-14.64,7.56-1.91-2.92-3.2-4.53-5.54-7.05,5.54-1.15,9.04-2.52,12.73-4.87h-1.85c-2.03,0-3.2.06-4.37.11.06-1.72.12-3.44.12-5.27v-7.73c-1.35,3.84-2.58,6.42-4.86,9.97-1.85-1.72-3.2-2.81-5.17-4.12v11.12c0,3.09-.62,4.58-2.21,5.56-1.6.92-3.51,1.26-6.95,1.26-1.29,0-2.58-.06-5.35-.23-.25-2.81-.68-4.99-1.72-8.19,2.15.34,3.94.46,5.97.46,1.35,0,1.6-.17,1.6-1.26v-15.87h-1.48c-2.46,0-4.24.06-6.15.29v-8.37c1.66.17,2.95.23,5.78.23h3.69c-2.03-2.12-4.49-4.12-7.32-6.07l5.29-4.87h-.8c-2.71,0-3.94.06-5.78.29v-8.48c2.15.23,4,.34,6.95.34h8.24c3.07,0,4.18-.06,5.47-.23l3.88,3.9v-4.01c1.66.23,3.44.29,7.07.29h17.71c3.81,0,5.66-.06,7.44-.29v8.42c-1.72-.23-3.81-.29-7.38-.29h-4c-.55,1.2-.74,1.6-1.29,2.64h4.24c3.81,0,4.98,0,6.46-.11-.19,1.49-.25,2.86-.25,4.93v19.65c0,2.29.06,4.3.25,6.13-2.34-.11-3.63-.17-5.29-.17h-3.2ZM463.29,73.36c2.03,1.6,2.4,1.95,3.94,3.27,1.11-1.15,1.78-2.01,2.58-3.27h-6.52ZM471.35,97.99c1.23-1.72,2.09-3.44,3.01-5.84h-3.01v5.84ZM480.45,71.12c-1.91,3.44-4.98,7.73-7.63,10.83.74.69.8.8,2.21,2.35,1.29,0,2.28-.06,3.32-.17l3.01,2.46v-5.33l-.06-2.81v-.97c0-.29,0-.74-.06-1.66,1.17.11,2.15.11,5.04.11h4.37c.43-.8.92-1.72,1.29-2.64h-4.43c-3.32,0-5.11.06-7.07.29v-2.46ZM489.98,106.36l4.92,3.95,5.04-3.95h-9.96ZM490.17,84.59h11.44v-2.12h-11.44v2.12ZM490.17,92.03h11.44v-2.18h-11.44v2.18ZM490.17,99.65h11.44v-2.35h-11.44v2.35Z"/><path class="cls-2" d="M541.64,98.62c0,2.98,0,3.9.12,4.93-.92-.06-1.23-.12-2.58-.12,1.23,3.32,2.64,5.96,4.8,8.71-2.09.97-3.69,2-6.7,4.3-1.85-3.04-2.89-5.1-4.24-8.71-1.42,4.18-2.65,6.59-5.23,9.91-2.58-2.06-4.24-3.15-6.83-4.53,2.65-3.27,4-5.73,5.29-9.68-1.48,0-1.85,0-3.08.12.18-2.06.25-4.18.25-6.25v-26.58c0-2.01-.06-3.55-.25-5.39,1.48.17,2.77.23,5.29.23h8.49c2.4,0,3.57-.06,4.86-.23-.12,1.38-.18,2.29-.18,4.7v28.59ZM537.95,103.44h-10.21l5.23,2.41,4.98-2.41ZM531.12,76.39h3.38v-3.27h-3.38v3.27ZM531.12,86.02h3.38v-3.21h-3.38v3.21ZM531.12,95.87h3.38v-3.27h-3.38v3.27ZM547.05,87.16c-1.78,0-2.89.06-4.37.23v-6.42c1.17.17,2.46.23,4.37.23h2.03v-1.72h-1.23c-1.17,0-2.83.06-3.63.17v-5.33c.19.06.31.06.43.06.31.06,1.41.11,3.2.11h1.23v-1.66h-2.09c-1.6,0-2.52.06-3.75.17v-6.07c1.29.17,2.28.23,4.12.23h1.72c0-1.72-.06-2.12-.31-3.09h9.23c-.31.86-.37,1.43-.37,3.09h5.17c0-1.89-.06-2.06-.31-3.09h9.23c-.31.97-.37,1.49-.37,3.09h3.32c1.72,0,2.71-.06,3.75-.23v6.07c-1.17-.12-2.15-.17-3.75-.17h-3.32v1.66h2.4c1.35,0,2.58-.06,3.38-.17v5.33c-.86-.12-2.4-.17-3.57-.17h-2.21v1.72h3.57c2.28,0,3.38-.06,4.18-.23v6.42c-1.05-.17-2.15-.23-4.18-.23h-10.27v1.66h6.46c2.58,0,4.43-.06,5.35-.23q-.25,2.81-.25,3.84v9.45c1.42,0,2.03-.06,2.95-.23v7.45c-1.05-.11-1.6-.17-2.95-.23v1.78c0,3.67-.43,4.99-2.03,5.84-1.23.63-3.01.86-7.26.86q-.62,0-3.69-.06c-.31-3.04-.55-4.12-1.48-6.47,1.6.29,2.95.4,4.12.4,1.54,0,2.03-.29,2.03-1.09v-1.26h-15.01v.92c0,4.24.06,5.33.31,7.79h-8.92c.25-2.35.31-3.61.31-7.79v-.92c-.98.06-1.41.06-2.28.23v-7.39c.8.12,1.23.12,2.28.17v-8.25c0-2.52-.06-3.72-.18-4.99,1.41.11,2.83.17,4.92.17h6.46v-1.66h-8.73ZM556.53,94.15h-3.63v1.95h3.63v-1.95ZM556.53,100.57h-3.63v2h3.63v-2ZM557.63,74.5h5.17v-1.66h-5.17v1.66ZM557.63,81.21h5.17v-1.72h-5.17v1.72ZM567.91,96.1v-1.95h-3.94v1.95h3.94ZM567.91,102.58v-2h-3.94v2h3.94Z"/></svg>