<?xml version="1.0" encoding="UTF-8"?><svg id="_圖層_4" xmlns="http://www.w3.org/2000/svg" viewBox="0 0 122 110"><defs><style>.cls-1{fill:#fff;}.cls-2{fill:none;stroke:#fff;stroke-linecap:round;stroke-linejoin:round;stroke-width:4.26px;}</style></defs><path class="cls-2" d="M56.96,99.73c.28.28,1.07.44,1.48.44,3.75.04,16.57-8.74,20.19-11.3,18.17-12.8,38.24-30.48,26.4-55.03C89.04.69,29.07,1.96,15.7,37.02c-9.15,23.99,10.76,42.74,32.24,48.38,2.14.56,8.24.94,9.1,3.01,1.11,2.66-1.55,9.87-.08,11.33Z"/><path class="cls-1" d="M55.84,38.58c1.29.19,3.67-.42,4.69.32,2.83,3.84,5.61,8.46,8.7,12.04.21.25-.02.65.79.44v-12.8c1.02.2,4.44-.52,4.79.57-.23,2.49.59,20.48-.28,21.08-.52.36-3.77.27-4.37-.17l-8.8-11.95-1.03-.53v12.28c0,.85-3.72.43-4.5.52v-21.79Z"/><path class="cls-1" d="M92.85,38.58c-.09.78.33,4.5-.52,4.5h-9.17v3.81h9.17c.78,0,.78,4.84,0,4.84h-9.17c.23,1.34-.83,4.15,1.21,4.15h8.48c-.09.78.33,4.5-.52,4.5h-13.49s-.52-.48-.52-.52v-20.76s.48-.52.52-.52h14.01Z"/><path class="cls-1" d="M34.04,38.58v16.95c3.3.59,6.69.27,10.03.34-.09.78.32,4.5-.52,4.5h-13.49s-.52-.48-.52-.52v-20.76c0-.85,3.72-.43,4.5-.52Z"/><path class="cls-1" d="M52.03,38.58v21.28c0,.72-4.27.65-4.46.48-.83-.71-.39-19.21-.02-21.74l4.48-.02Z"/></svg>