<svg width="986" height="620" viewBox="0 0 986 620" fill="none" xmlns="http://www.w3.org/2000/svg">
<g clip-path="url(#clip0_491_41)">
<path d="M365.613 173.73H471.353C473.393 173.73 474.933 175.59 474.543 177.6L471.923 191.13C471.623 192.66 470.283 193.76 468.733 193.76H362.993C360.953 193.76 359.413 191.9 359.803 189.89L362.423 176.36C362.723 174.83 364.063 173.73 365.613 173.73Z" fill="#FFF000"/>
<path d="M519.762 252.73H580.342C581.662 252.73 582.632 254.05 582.312 255.41L580.792 261.82C580.562 262.78 579.752 263.45 578.822 263.45H518.242C516.922 263.45 515.952 262.13 516.272 260.77L517.792 254.36C518.022 253.4 518.832 252.73 519.762 252.73Z" fill="#FFF000"/>
<path d="M493.161 218.43H627.101C628.421 218.43 629.391 219.75 629.071 221.11L627.551 227.52C627.321 228.48 626.511 229.15 625.581 229.15H491.641C490.321 229.15 489.351 227.83 489.671 226.47L491.191 220.06C491.421 219.1 492.231 218.43 493.161 218.43Z" fill="#FFF000"/>
<path d="M516.682 274.67H571.442C572.742 274.67 573.702 275.95 573.422 277.29L571.792 285.02C571.582 286 570.762 286.7 569.812 286.7H515.052C513.752 286.7 512.792 285.42 513.072 284.08L514.702 276.35C514.912 275.37 515.732 274.67 516.682 274.67Z" fill="#FFF000"/>
<path d="M444.072 312.29H616.072C617.382 312.29 618.352 313.59 618.042 314.94L615.092 328.22C614.872 329.19 614.062 329.88 613.122 329.88H441.122C439.812 329.88 438.842 328.58 439.152 327.23L442.102 313.95C442.322 312.98 443.132 312.29 444.072 312.29Z" fill="#FFF000"/>
<path d="M411.197 176.81C410.557 189.93 404.937 240.4 356.637 238.47C354.957 238.4 353.497 239.6 353.267 241.27L345.227 299.06C344.977 300.87 346.257 302.55 348.077 302.74C361.127 304.13 409.947 300.61 436.877 177.7C437.327 175.67 435.777 173.74 433.697 173.74H414.457C412.727 173.74 411.297 175.09 411.207 176.82L411.197 176.81Z" fill="#FFF000"/>
<path d="M498.853 340.96C497.613 347.89 489.333 376.89 434.613 368.32C433.463 368.14 432.383 368.92 432.173 370.07L424.823 410.76C424.633 411.83 425.253 412.87 426.293 413.2C439.983 417.48 527.053 436.38 527.383 341.34C527.383 340.15 526.413 339.19 525.223 339.19H500.973C499.923 339.19 499.043 339.94 498.853 340.97V340.96Z" fill="#FFF000"/>
<path d="M565.04 352.54C568.44 356.26 586.18 379.82 619.88 366.93C621.43 366.34 623.04 367.61 622.8 369.25L616.18 413.59C616.06 414.41 615.48 415.09 614.69 415.33C605.2 418.24 544.49 426.37 539.77 354.14C539.69 352.89 540.67 351.83 541.92 351.83H563.45C564.06 351.83 564.63 352.09 565.04 352.53V352.54Z" fill="#FFF000"/>
<path d="M395.775 260.08C396.495 259.1 402.005 258.48 403.255 258.24C409.035 257.11 415.055 256.52 421.015 256.81C457.795 258.63 461.835 297.19 460.485 318.72C458.935 343.46 449.035 370.06 426.675 388.5C426.615 388.55 426.555 388.6 426.495 388.66C424.715 390.39 393.035 420.3 327.515 414.11C325.705 413.94 324.375 412.33 324.565 410.52L331.985 342.12C332.185 340.26 333.905 338.96 335.745 339.26C344.085 340.61 366.545 343.16 388.675 336.1C403.005 331.53 413.625 321.98 417.405 310.39C421.235 298.66 418.955 283.7 404.645 276.7C402.005 275.41 399.085 274.46 396.015 273.98C395.395 273.89 393.815 273.69 392.055 273.56C389.505 273.38 388.165 270.45 389.675 268.39L395.765 260.08H395.775Z" fill="#FFF000"/>
<path d="M531.631 205.37C530.821 205.37 530.081 205.87 529.761 206.64C527.241 212.88 525.581 219.38 523.021 225.62C517.111 239.98 510.181 254.2 501.831 267.67C494.121 280.44 485.571 293.21 474.631 304.21C471.361 307.5 467.731 310.89 463.521 313.46C462.251 314.24 462.221 316.13 463.441 316.98C465.121 318.15 466.821 319.58 467.331 319.94C470.431 322.09 473.781 323.71 477.621 324.74C485.201 326.79 497.791 328.2 505.061 325.38C512.961 322.32 517.781 318.17 520.771 311.79C534.311 282.94 541.831 249.62 549.581 219.23C549.771 218.47 551.771 211.9 552.801 208.02C553.161 206.69 552.191 205.37 550.851 205.37C545.931 205.37 535.351 205.37 531.611 205.37H531.631Z" fill="#FFF000"/>
<path d="M588.37 205.37C587.56 205.37 586.82 205.87 586.5 206.64C583.98 212.88 582.32 219.38 579.76 225.62C573.44 240.99 566.83 256.24 560.21 271.48C554.53 284.57 550.68 295.44 538.78 308.69C535.68 312.14 531.879 315.37 527.669 317.94C526.399 318.72 526.37 320.61 527.59 321.46C529.27 322.63 530.969 324.06 531.479 324.42C534.579 326.57 538.24 324.71 542.08 325.75C549.66 327.8 556.42 327.64 563.69 324.82C571.59 321.76 574.52 318.17 577.51 311.79C591.05 282.94 598.57 249.62 606.32 219.23C606.51 218.47 608.509 211.9 609.539 208.02C609.899 206.69 608.93 205.37 607.59 205.37C602.67 205.37 592.089 205.37 588.349 205.37H588.37Z" fill="#FFF000"/>
<path d="M266.42 201.95C265.18 201.95 264.19 202.94 264.16 204.18C263.78 218.13 261.47 228.98 260.26 237.69C256.92 261.7 241.43 321.03 232.73 339.35C221.3 363.44 192.59 376.46 171.76 388.61C161.72 393.85 172.71 399.04 173.75 399.75C177.13 402.05 185.01 401.2 189.34 401.67C199.63 402.79 226.37 402.3 234.92 401.41C245.3 400.32 254.79 394.99 261.52 386.91C285.71 357.91 258.8 298.03 296.39 216.8C296.87 215.77 300.4 203.7 300.58 201.95C306.47 201.95 275.15 201.95 266.4 201.95H266.42Z" fill="#FFF000"/>
<path d="M417.076 184.23L413.516 182.86C411.976 182.26 411.116 180.6 411.536 179L414.756 151.71C415.126 150.28 416.426 149.28 417.906 149.28H434.346C436.476 149.28 438.026 151.29 437.496 153.35L434.706 179.02C434.396 180.2 433.456 181.11 432.276 181.37L418.956 184.36C418.326 184.5 417.676 184.45 417.076 184.22V184.23Z" fill="#FFF000"/>
<path d="M71.9546 173.73H179.025C180.665 173.73 181.895 175.22 181.585 176.83L178.715 191.66C178.475 192.88 177.405 193.77 176.155 193.77H69.0846C67.4446 193.77 66.2146 192.28 66.5246 190.67L69.3946 175.84C69.6346 174.62 70.7046 173.73 71.9546 173.73Z" fill="#FFF000"/>
<path d="M209.267 171.1H320.227C321.717 171.1 322.797 172.51 322.417 173.95L319.737 184.16C319.477 185.16 318.577 185.85 317.547 185.85H206.587C205.097 185.85 204.017 184.44 204.397 183L207.077 172.79C207.337 171.79 208.237 171.1 209.267 171.1Z" fill="#FFF000"/>
<path d="M502.384 171.1H613.344C614.834 171.1 615.914 172.51 615.534 173.95L612.854 184.16C612.594 185.16 611.694 185.85 610.664 185.85H499.704C498.214 185.85 497.134 184.44 497.514 183L500.194 172.79C500.454 171.79 501.354 171.1 502.384 171.1Z" fill="#FFF000"/>
<path d="M227.014 227.11H316.474C317.924 227.11 318.994 228.44 318.694 229.86L315.794 243.34C315.574 244.39 314.644 245.13 313.574 245.13H224.114C222.664 245.13 221.594 243.8 221.894 242.38L224.794 228.9C225.014 227.85 225.944 227.11 227.014 227.11Z" fill="#FFF000"/>
<path d="M200.116 290.27H306.386C307.836 290.27 308.906 291.6 308.606 293.02L305.706 306.5C305.486 307.55 304.556 308.29 303.486 308.29H197.216C195.766 308.29 194.696 306.96 194.996 305.54L197.896 292.06C198.116 291.01 199.046 290.27 200.116 290.27Z" fill="#FFF000"/>
<path d="M158.694 386.86H302.724C304.154 386.86 305.224 388.16 304.954 389.56L301.954 405.06C301.744 406.13 300.814 406.9 299.724 406.9H155.694C154.264 406.9 153.194 405.6 153.464 404.2L156.464 388.7C156.674 387.63 157.604 386.86 158.694 386.86Z" fill="#FFF000"/>
<path d="M118.092 176.21C117.582 188.36 112.532 240.84 62.9122 238.44C61.5722 238.38 60.4022 239.35 60.2122 240.68L52.0022 299.71C51.8022 301.14 52.7922 302.46 54.2222 302.65C66.1122 304.22 116.502 302.97 143.912 176.88C144.262 175.26 143.022 173.73 141.362 173.73H120.692C119.302 173.73 118.152 174.82 118.092 176.22V176.21Z" fill="#FFF000"/>
<path d="M197.882 151.48C197.612 161.05 194.162 213.4 155.022 218.45C154.042 218.58 153.242 219.31 153.052 220.28L144.992 262.95C144.722 264.4 145.882 265.79 147.352 265.64C181.622 262.02 209.812 248.76 223.632 152.11C223.842 150.65 222.902 149.3 221.432 149.3H200.152C198.932 149.3 197.922 150.27 197.882 151.49V151.48Z" fill="#FFF000"/>
<path d="M491.031 151.48C490.761 161.05 487.311 213.4 448.171 218.45C447.191 218.58 446.391 219.31 446.201 220.28L438.141 262.95C437.871 264.4 439.031 265.79 440.501 265.64C474.771 262.02 502.961 248.76 516.781 152.11C516.991 150.65 516.051 149.3 514.581 149.3H493.301C492.081 149.3 491.071 150.27 491.031 151.49V151.48Z" fill="#FFF000"/>
<path d="M219.743 215.77C221.253 222.38 221.573 238.54 188.983 239.01C187.913 239.03 187.003 239.8 186.803 240.86L180.463 274.33C180.213 275.64 181.143 276.87 182.463 277.01C193.103 278.13 235.283 278.49 244.943 215.62C245.153 214.24 244.093 212.99 242.703 212.99H221.953C220.493 212.99 219.423 214.35 219.743 215.77Z" fill="#FFF000"/>
<path d="M102.653 260.08C103.373 259.1 108.883 258.48 110.133 258.24C115.913 257.11 121.933 256.52 127.893 256.81C164.673 258.63 168.713 297.19 167.363 318.72C165.813 343.46 155.903 370.07 133.533 388.51C133.483 388.55 133.443 388.59 133.393 388.63C131.843 390.15 99.9434 420.53 33.7034 414.03C32.2634 413.89 31.2234 412.59 31.3834 411.16L38.9534 341.43C39.1134 339.94 40.5034 338.89 41.9834 339.14C49.7334 340.45 72.8334 343.34 95.5734 336.08C109.903 331.51 120.523 321.96 124.303 310.37C128.133 298.64 125.853 283.68 111.543 276.68C108.903 275.39 105.983 274.44 102.913 273.96C102.173 273.85 100.013 273.59 97.8334 273.48C95.7634 273.37 94.6334 271.01 95.8634 269.34L102.663 260.07L102.653 260.08Z" fill="#FFF000"/>
<path d="M124.135 184.3L119.855 182.65C118.615 182.17 117.935 180.84 118.275 179.56L121.765 151.23C122.065 150.08 123.095 149.28 124.285 149.28H142.065C143.765 149.28 145.015 150.89 144.585 152.54L141.485 179.4C141.235 180.34 140.485 181.07 139.535 181.28L125.635 184.4C125.135 184.51 124.605 184.47 124.125 184.29L124.135 184.3Z" fill="#FFF000"/>
<path d="M731.151 466.85C735.071 443.9 734.881 415.24 715.201 411.63C707.071 409.82 702.701 404.86 702.701 400.34C702.701 396.73 707.071 395.37 714.341 389.05C734.671 374.35 735.471 365.82 735.471 344.6C735.471 332.86 729.861 327.79 725.161 327.79C713.611 327.79 690.511 361.2 683.671 389.19C681.961 395.51 681.101 397.32 677.681 397.32C670.841 397.32 649.871 378.81 649.871 358.49C649.871 322.37 694.791 286.7 740.131 286.7C776.921 286.7 803.441 310.63 803.441 343.59C803.441 381.06 773.071 395.96 747.831 408.15C788.931 407.51 806.861 427.11 806.861 456.01C806.861 501.61 731.571 589.2 658.851 589.2C624.201 589.2 598.531 563.01 598.531 528.25C598.531 490.78 638.741 451.5 676.811 451.5C681.521 451.5 684.511 453.76 684.511 457.37C684.511 459.63 683.231 461.43 678.521 465.95C663.551 479.95 657.991 505.23 657.991 524.19C657.991 533.78 659.231 541.1 662.221 547.79C663.261 550.1 665.801 551.33 668.271 550.78C691.151 545.65 725.061 502.38 731.141 466.86L731.151 466.85Z" fill="#FFF000"/>
<path d="M964.005 343.96C964.005 392.96 922.405 471.37 869.985 471.37C837.065 471.37 813.445 449.93 813.445 412.9C813.445 349.38 860.995 289.27 910.975 289.27C919.815 289.27 924.695 290.69 930.785 294.97C951.515 294.4 964.005 320.32 964.005 343.97V343.96ZM864.035 395.8C864.035 418.87 881.675 438.29 894.055 436.81C915.895 434.2 924.085 396.17 924.075 361.61C924.075 342.81 917.065 324.01 906.705 316.03C905.795 315.46 904.875 314.32 904.875 314.04C904.875 311.19 914.625 303.78 920.115 299.51C893.905 300.36 864.035 351.64 864.035 395.79V395.8Z" fill="#FFF000"/>
<path d="M684.66 192.51C682.9 192.51 681.91 192.52 680.98 192.55C680.38 192.57 679.9 192.07 679.96 191.5C680.04 190.77 680.07 189.96 680.07 188.74V174.43C680.07 173.46 680.04 172.62 679.95 171.77C679.89 171.19 680.37 170.69 680.97 170.71C681.89 170.74 682.67 170.74 684.62 170.74H693.21C698.52 170.74 701.63 172.78 701.63 176.24C701.63 177.84 700.97 179.09 699.73 179.98C699.63 180.05 699.52 180.12 699.42 180.18C698.77 180.59 698.83 181.5 699.53 181.83C699.86 181.98 700.16 182.16 700.48 182.38C701.89 183.37 702.61 184.79 702.61 186.51C702.61 190.28 699.27 192.5 693.56 192.5H684.64L684.66 192.51ZM692.26 179.14C694 179.14 695.08 178.33 695.08 177.05C695.08 175.77 694.06 175.03 692.2 175.03H687.49C686.94 175.03 686.5 175.46 686.5 175.99V178.17C686.5 178.7 686.94 179.13 687.49 179.13H692.26V179.14ZM686.49 187.23C686.49 187.76 686.93 188.19 687.48 188.19H692.52C694.58 188.19 695.83 187.27 695.83 185.73C695.83 184.19 694.58 183.32 692.49 183.32H687.49C686.94 183.32 686.5 183.75 686.5 184.28V187.22L686.49 187.23Z" fill="white"/>
<path d="M745.642 192.51C745.182 192.51 744.772 192.19 744.672 191.75C744.482 190.94 744.302 190.37 744.052 189.68L743.412 188.07C743.262 187.7 742.892 187.45 742.482 187.45H734.502C734.092 187.45 733.722 187.7 733.572 188.07L732.932 189.68C732.622 190.45 732.412 191.09 732.262 191.76C732.162 192.2 731.762 192.51 731.292 192.51H726.082C725.352 192.51 724.872 191.78 725.182 191.14C725.402 190.69 725.652 190.12 726.012 189.31L733.092 173.56C733.512 172.64 733.782 171.98 733.962 171.4C734.082 171 734.472 170.73 734.912 170.73H741.962C742.392 170.73 742.772 171 742.902 171.39C743.092 171.94 743.342 172.57 743.802 173.55L750.912 189.3C751.222 189.99 751.502 190.59 751.762 191.12C752.072 191.76 751.592 192.49 750.862 192.49H745.622L745.642 192.51ZM737.522 177.58L735.902 181.76C735.662 182.39 736.142 183.06 736.832 183.06H740.112C740.812 183.06 741.292 182.38 741.042 181.75L739.382 177.57C739.052 176.74 737.842 176.75 737.522 177.57V177.58Z" fill="white"/>
<path d="M790.762 181.44C790.902 181.6 791.032 181.76 791.152 181.91C791.742 182.63 792.942 182.23 792.922 181.31C792.922 181.1 792.922 180.89 792.922 180.68V174.71C792.922 173.5 792.892 172.62 792.802 171.79C792.742 171.22 793.202 170.73 793.792 170.73H798.512C799.102 170.73 799.562 171.22 799.502 171.79C799.412 172.62 799.382 173.52 799.382 174.71V188.6C799.382 189.7 799.432 190.61 799.512 191.44C799.572 192.01 799.112 192.5 798.522 192.5H793.022C792.682 192.5 792.362 192.34 792.192 192.06C791.642 191.21 790.952 190.34 790.002 189.18L783.942 181.88C783.812 181.73 783.702 181.59 783.582 181.45C782.992 180.73 781.792 181.13 781.812 182.05C781.812 182.22 781.812 182.39 781.812 182.56V188.42C781.812 189.68 781.842 190.61 781.932 191.45C781.992 192.02 781.532 192.5 780.942 192.5H776.232C775.642 192.5 775.192 192 775.242 191.43C775.322 190.64 775.352 189.69 775.352 188.39V174.63C775.352 173.56 775.322 172.66 775.232 171.8C775.172 171.23 775.622 170.73 776.222 170.73H781.602C781.962 170.73 782.292 170.92 782.462 171.22C782.862 171.9 783.522 172.8 784.532 174L790.762 181.43V181.44Z" fill="white"/>
<path d="M839.731 181.44C839.871 181.6 840.001 181.76 840.121 181.91C840.711 182.63 841.911 182.23 841.891 181.31C841.891 181.1 841.891 180.89 841.891 180.68V174.71C841.891 173.5 841.861 172.62 841.771 171.79C841.711 171.22 842.171 170.73 842.761 170.73H847.481C848.071 170.73 848.531 171.22 848.471 171.79C848.381 172.62 848.351 173.52 848.351 174.71V188.6C848.351 189.7 848.401 190.61 848.481 191.44C848.541 192.01 848.081 192.5 847.491 192.5H841.991C841.651 192.5 841.331 192.34 841.161 192.06C840.611 191.21 839.921 190.34 838.971 189.18L832.911 181.88C832.781 181.73 832.671 181.59 832.551 181.45C831.961 180.73 830.761 181.13 830.781 182.05C830.781 182.22 830.781 182.39 830.781 182.56V188.42C830.781 189.68 830.811 190.61 830.901 191.45C830.961 192.02 830.501 192.5 829.911 192.5H825.201C824.611 192.5 824.161 192 824.211 191.43C824.291 190.64 824.321 189.69 824.321 188.39V174.63C824.321 173.56 824.291 172.66 824.201 171.8C824.141 171.23 824.591 170.73 825.191 170.73H830.571C830.931 170.73 831.261 170.92 831.431 171.22C831.831 171.9 832.491 172.8 833.501 174L839.731 181.43V181.44Z" fill="white"/>
<path d="M893.587 191.65C893.587 192.2 893.107 192.65 892.537 192.61C891.477 192.54 890.287 192.51 888.177 192.51H877.857C876.097 192.51 875.127 192.52 874.217 192.55C873.617 192.57 873.137 192.08 873.197 191.5C873.277 190.78 873.297 189.95 873.297 188.77V174.48C873.297 173.35 873.267 172.57 873.177 171.76C873.117 171.18 873.587 170.68 874.187 170.7C875.077 170.73 876.067 170.74 877.847 170.74H888.307C889.997 170.74 891.047 170.71 892.127 170.64C892.697 170.6 893.187 171.04 893.187 171.6V174.41C893.187 174.97 892.707 175.41 892.127 175.37C891.047 175.3 889.967 175.27 888.297 175.27H880.767C880.217 175.27 879.777 175.7 879.777 176.23V178.15C879.777 178.68 880.217 179.11 880.767 179.11H886.857C888.587 179.11 889.437 179.09 890.717 179.01C891.287 178.97 891.777 179.41 891.777 179.97V182.73C891.777 183.29 891.287 183.73 890.717 183.69C889.637 183.62 888.577 183.59 886.857 183.59H880.767C880.217 183.59 879.777 184.02 879.777 184.55V187.02C879.777 187.55 880.217 187.98 880.767 187.98H888.227C890.107 187.98 891.387 187.95 892.517 187.88C893.087 187.84 893.577 188.28 893.577 188.84V191.64L893.587 191.65Z" fill="white"/>
<path d="M934.556 192.51C934.116 192.51 933.746 192.23 933.616 191.82C933.376 191.06 932.966 190.05 932.206 188.42C931.156 186.14 930.766 185.54 929.946 184.97C929.256 184.47 928.436 184.26 927.386 184.26H925.036C924.486 184.26 924.046 184.69 924.046 185.22V188.55C924.046 189.79 924.076 190.63 924.166 191.43C924.226 192 923.766 192.5 923.176 192.5H918.396C917.806 192.5 917.346 192.01 917.406 191.44C917.486 190.69 917.516 189.9 917.516 188.57V174.49C917.516 173.36 917.486 172.55 917.396 171.74C917.336 171.16 917.806 170.67 918.406 170.68C919.426 170.71 920.516 170.72 922.136 170.72H930.656C935.966 170.72 939.046 172.92 939.046 176.69C939.046 178.55 938.386 180.01 937.116 180.98C936.786 181.22 936.486 181.41 936.126 181.58C935.476 181.89 935.416 182.73 935.966 183.19C936.496 183.63 936.946 184.24 937.466 185.17C937.956 186.01 938.416 186.9 939.896 189.72C940.106 190.14 940.316 190.53 940.626 191.06C940.996 191.7 940.526 192.5 939.766 192.5H934.556V192.51ZM929.146 179.79C931.076 179.79 932.256 178.85 932.256 177.36C932.256 175.87 931.206 175.14 929.176 175.14H925.026C924.476 175.14 924.036 175.57 924.036 176.1V178.83C924.036 179.36 924.476 179.79 925.026 179.79H929.146Z" fill="white"/>
<path d="M699.149 232.22C698.759 232.28 698.359 232.08 698.229 231.72C697.479 229.75 695.809 228.77 693.249 228.77C689.249 228.77 686.919 231.28 686.919 235.6C686.919 239.92 689.349 242.46 693.409 242.46C695.209 242.46 696.749 241.86 697.699 240.81C698.119 240.34 698.349 239.93 698.529 239.29C698.639 238.88 699.029 238.6 699.469 238.66L704.499 239.26C705.039 239.32 705.379 239.85 705.209 240.35C704.649 242 703.949 243.09 702.789 244.17C700.759 246.03 697.579 247.02 693.609 247.02C689.639 247.02 686.229 246.03 683.909 244.14C681.479 242.18 680.109 239.12 680.109 235.61C680.109 232.1 681.489 229.04 684.079 227C686.339 225.25 689.649 224.28 693.489 224.28C697.719 224.28 701.029 225.43 703.159 227.71C703.979 228.55 704.499 229.32 704.889 230.35C705.069 230.84 704.739 231.37 704.209 231.45L699.169 232.23L699.149 232.22Z" fill="white"/>
<path d="M751.262 224.74C751.772 224.74 752.172 225.17 752.112 225.66C752.022 226.44 751.992 227.3 751.992 228.61V242.63C751.992 243.9 752.032 244.72 752.132 245.58C752.192 246.07 751.792 246.5 751.282 246.5H746.202C745.692 246.5 745.292 246.07 745.352 245.58C745.442 244.79 745.482 243.93 745.482 242.63V238.38C745.482 237.92 745.102 237.55 744.622 237.55H735.292C734.822 237.55 734.432 237.92 734.432 238.38V242.63C734.432 243.88 734.472 244.75 734.562 245.59C734.622 246.08 734.222 246.5 733.712 246.5H728.632C728.122 246.5 727.722 246.07 727.782 245.58C727.872 244.8 727.902 243.94 727.902 242.63V228.61C727.902 227.31 727.872 226.46 727.772 225.66C727.712 225.17 728.112 224.74 728.622 224.74H733.702C734.212 224.74 734.612 225.16 734.552 225.65C734.452 226.53 734.412 227.4 734.412 228.61V232.12C734.412 232.58 734.792 232.95 735.272 232.95H744.602C745.072 232.95 745.462 232.58 745.462 232.12V228.61C745.462 227.33 745.432 226.43 745.342 225.65C745.282 225.16 745.682 224.73 746.192 224.73H751.262V224.74Z" fill="white"/>
<path d="M799.444 224.74C799.954 224.74 800.354 225.17 800.294 225.66C800.204 226.46 800.164 227.33 800.164 228.69V237.69C800.164 243.66 795.674 247.03 787.774 247.03C783.714 247.03 780.394 246.11 778.434 244.47C776.534 242.85 775.554 240.57 775.554 237.64V228.69C775.554 227.41 775.524 226.45 775.434 225.65C775.384 225.16 775.774 224.74 776.284 224.74H781.374C781.884 224.74 782.284 225.17 782.224 225.66C782.134 226.42 782.104 227.34 782.104 228.69V237.69C782.104 240.99 783.974 242.56 787.804 242.56C791.634 242.56 793.604 240.99 793.604 237.69V228.69C793.604 227.27 793.574 226.46 793.474 225.67C793.414 225.18 793.814 224.74 794.324 224.74H799.434H799.444Z" fill="white"/>
<path d="M840.656 246.51C840.276 246.51 839.946 246.27 839.836 245.91C839.596 245.14 839.186 244.12 838.396 242.42C837.346 240.14 836.956 239.54 836.136 238.97C835.446 238.47 834.626 238.26 833.576 238.26H831.086C830.616 238.26 830.226 238.63 830.226 239.09V242.55C830.226 243.86 830.266 244.73 830.356 245.58C830.416 246.07 830.016 246.5 829.506 246.5H824.426C823.916 246.5 823.516 246.07 823.576 245.57C823.666 244.78 823.706 243.98 823.706 242.57V228.49C823.706 227.29 823.666 226.45 823.576 225.59C823.516 225.09 823.936 224.66 824.456 224.68C825.526 224.71 826.636 224.73 828.336 224.73H836.856C842.166 224.73 845.246 226.93 845.246 230.7C845.246 232.56 844.586 234.02 843.316 234.99C842.946 235.26 842.606 235.47 842.186 235.65C841.586 235.92 841.486 236.68 842.016 237.07C842.616 237.51 843.106 238.15 843.676 239.17C844.166 240.01 844.626 240.9 846.106 243.72C846.336 244.19 846.586 244.63 846.946 245.25C847.266 245.8 846.856 246.49 846.206 246.49H840.666L840.656 246.51ZM835.336 233.8C837.266 233.8 838.446 232.86 838.446 231.37C838.446 229.88 837.396 229.15 835.366 229.15H831.076C830.606 229.15 830.216 229.52 830.216 229.98V232.98C830.216 233.44 830.596 233.81 831.076 233.81H835.336V233.8Z" fill="white"/>
<path d="M887.626 232.22C887.236 232.28 886.836 232.08 886.706 231.72C885.956 229.75 884.286 228.77 881.726 228.77C877.726 228.77 875.396 231.28 875.396 235.6C875.396 239.92 877.826 242.46 881.886 242.46C883.686 242.46 885.226 241.86 886.176 240.81C886.596 240.34 886.826 239.93 887.006 239.29C887.116 238.88 887.506 238.6 887.946 238.66L892.976 239.26C893.516 239.32 893.856 239.85 893.686 240.35C893.126 242 892.426 243.09 891.266 244.17C889.236 246.03 886.056 247.02 882.086 247.02C878.116 247.02 874.706 246.03 872.386 244.14C869.956 242.18 868.586 239.12 868.586 235.61C868.586 232.1 869.966 229.04 872.556 227C874.816 225.25 878.126 224.28 881.966 224.28C886.196 224.28 889.506 225.43 891.636 227.71C892.456 228.55 892.976 229.32 893.366 230.35C893.546 230.84 893.216 231.37 892.686 231.45L887.646 232.23L887.626 232.22Z" fill="white"/>
<path d="M939.723 224.74C940.233 224.74 940.633 225.17 940.573 225.66C940.483 226.44 940.453 227.3 940.453 228.61V242.63C940.453 243.9 940.493 244.72 940.593 245.58C940.653 246.07 940.253 246.5 939.743 246.5H934.663C934.153 246.5 933.753 246.07 933.813 245.58C933.903 244.79 933.943 243.93 933.943 242.63V238.38C933.943 237.92 933.563 237.55 933.083 237.55H923.753C923.283 237.55 922.893 237.92 922.893 238.38V242.63C922.893 243.88 922.933 244.75 923.023 245.59C923.083 246.08 922.683 246.5 922.173 246.5H917.093C916.583 246.5 916.183 246.07 916.243 245.58C916.333 244.8 916.363 243.94 916.363 242.63V228.61C916.363 227.31 916.333 226.46 916.233 225.66C916.173 225.17 916.573 224.74 917.083 224.74H922.163C922.673 224.74 923.073 225.16 923.013 225.65C922.913 226.53 922.873 227.4 922.873 228.61V232.12C922.873 232.58 923.253 232.95 923.733 232.95H933.063C933.533 232.95 933.923 232.58 933.923 232.12V228.61C933.923 227.33 933.893 226.43 933.803 225.65C933.743 225.16 934.143 224.73 934.653 224.73H939.723V224.74Z" fill="white"/>
<path d="M69.4432 493.68C69.8732 492.76 69.7932 491.69 69.2432 490.89L67.7032 488.64C67.1432 487.82 66.2132 487.42 65.2732 487.59C59.5632 488.64 52.9632 488.28 46.6932 487.81C46.4332 487.79 46.1032 487.75 45.7332 487.71C43.8632 487.49 41.0332 487.16 39.5132 488.31C38.9732 488.72 38.6432 489.27 38.5332 489.94L37.8332 494.17C37.6832 495.08 37.8632 495.82 38.3832 496.37C39.5832 497.65 42.2132 497.42 43.8832 497.28C47.1432 497 50.4532 497.02 53.6532 497.05C54.5932 497.05 55.5332 497.06 56.4732 497.06C56.8732 497.06 57.2332 497.25 57.4932 497.59C57.8232 498.04 57.9232 498.65 57.7532 499.24C53.7032 513.35 45.7832 529.42 31.9632 537.28C22.4632 542.68 21.7032 541.11 20.8532 545.65C20.6832 546.56 20.8632 547.45 21.2532 548.24C22.3532 550.45 24.8232 553.64 26.2832 555.61C28.2932 558.32 30.3332 558.42 33.0532 556.01C37.9532 551.66 41.8032 546.27 45.5732 541.01C49.6732 535.29 53.5232 529.39 56.7932 523.22C61.2032 514.88 64.4432 506.06 67.8832 497.37C68.6132 495.53 69.0332 494.53 69.4232 493.69L69.4432 493.68Z" fill="#FFF000"/>
<path d="M105.223 529C104.613 529.07 104.043 529.15 103.623 529.15C100.743 529.19 97.8634 529.18 94.9834 529.18H92.3134C91.9034 529.18 91.5234 529 91.2534 528.67C90.9434 528.31 90.8134 527.83 90.8934 527.36L91.7734 522.65C91.8934 521.93 92.4734 521.41 93.1434 521.41H100.333C101.003 521.41 101.723 521.48 102.483 521.56C105.003 521.82 108.123 522.15 109.503 518.98C110.183 517.41 110.093 515.56 109.283 514.37C108.623 513.42 107.543 512.95 106.253 513.05C104.753 513.16 103.243 513.21 101.633 513.21H95.1134C94.7034 513.21 94.3234 513.03 94.0534 512.7C93.7434 512.34 93.6234 511.86 93.7034 511.38L94.5534 506.38C94.6734 505.66 95.2534 505.14 95.9234 505.14H101.423C101.933 505.14 102.503 505.2 103.113 505.26C104.883 505.45 106.893 505.65 108.273 504.38C109.643 503.11 110.243 499.99 109.443 498.31C108.463 496.27 105.953 496.53 104.113 496.73C103.613 496.78 103.133 496.83 102.723 496.83H97.8934C97.4834 496.83 97.1034 496.65 96.8334 496.32C96.5234 495.96 96.4034 495.48 96.4834 495L97.4534 489.29C97.5334 488.82 97.8334 488.45 98.2234 488.2C108.533 481.63 113.843 476.83 120.893 471.64C122.573 470.35 123.833 469.41 124.723 468.75C125.863 467.91 126.203 466.31 125.503 465.09C125.303 464.75 125.133 464.41 124.963 464.08C124.303 462.78 123.623 461.43 121.813 460.82C120.383 460.33 118.903 460.39 117.473 460.46C102.553 461.05 94.7434 461.5 77.4334 460.3C74.2534 460.08 72.2434 460.61 71.3734 464.05C70.8534 466.1 69.9834 469.54 72.9034 470.39C75.5134 471.15 76.8134 470.87 82.1034 470.65C83.2034 470.6 84.2334 470.56 85.1134 470.53L86.3634 470.49C93.7034 470.25 96.7934 470 104.033 470C104.853 470 105.303 470.63 105.423 471.17C105.553 471.7 105.393 472.34 104.793 472.86C100.383 476.69 100.083 477.4 92.9534 482.09C92.7734 482.21 92.5534 482.23 92.3534 482.23H91.5534C90.1734 482.23 88.9834 483.36 88.8634 484.8C88.6734 487.04 88.3734 489.22 87.7534 492.87L87.2934 495.6C87.1734 496.32 86.5934 496.84 85.9234 496.84H80.9934C80.5634 496.84 80.0134 496.77 79.4234 496.7C77.8134 496.51 75.9934 496.29 74.8534 497.18C73.3834 498.33 72.7134 500.91 73.3534 502.93C73.8734 504.55 75.1134 505.42 76.7234 505.34C79.1234 505.21 81.4834 505.15 83.9534 505.15C84.3634 505.15 84.7434 505.33 85.0134 505.66C85.3234 506.02 85.4434 506.5 85.3634 506.98L84.5134 511.98C84.3934 512.7 83.8134 513.22 83.1434 513.22H76.9734C76.2434 513.22 75.5134 513.14 74.8034 513.06C72.5734 512.82 70.2734 512.57 68.3834 514.93C67.5234 516 66.8134 517.77 67.1634 519.29C67.3934 520.3 68.0634 521.04 69.0834 521.43C70.3334 521.9 72.1334 521.72 73.7134 521.55C74.4434 521.47 75.1234 521.4 75.6834 521.4H81.1934C81.6034 521.4 81.9834 521.58 82.2534 521.91C82.5634 522.27 82.6834 522.75 82.6134 523.22L81.7434 527.93C81.6234 528.65 81.0434 529.17 80.3734 529.17H68.6734C67.9434 529.17 67.1534 529.09 66.3934 529.01C65.3234 528.9 64.2134 528.79 63.1734 528.88C60.3234 529.12 60.0234 531.77 59.8134 533.7C59.7134 534.59 59.4034 535.49 59.5134 536.38C59.7534 538.27 63.3934 537.86 64.7034 537.92C68.4034 538.07 72.1134 538.09 75.8334 537.86C76.9734 537.78 77.8734 537.72 78.3534 537.72C78.7734 537.72 79.1434 537.9 79.4234 538.23C79.7334 538.59 79.8534 539.07 79.7734 539.56L78.0334 549.35C77.6234 551.74 77.5634 552.34 74.5934 552.25C72.2934 552.18 69.6734 551.71 66.9134 551.14C65.3734 550.82 63.7834 550.5 62.1434 550.23C61.3334 550.1 60.6734 550.25 60.1434 550.67C59.5034 551.18 59.1534 552.02 59.0634 553.24C59.0334 553.71 58.9234 554.43 58.8134 555.24C58.6234 556.57 58.4134 558.07 58.3834 559.15C58.3534 560.57 59.4034 561.76 60.7634 561.85C64.3534 562.09 67.5434 562.19 71.4134 562.19C76.9334 562.19 80.0734 562.12 82.3434 560.56C85.0234 559.03 86.0334 555.76 86.8034 551.22L88.9634 538.96C89.0834 538.24 89.6634 537.72 90.3334 537.72H101.803C102.413 537.72 103.133 537.79 103.893 537.87C106.193 538.11 108.793 538.38 110.413 536.9C112.013 535.43 112.783 532 111.403 530.1C110.163 528.39 107.333 528.74 105.263 528.99L105.223 529Z" fill="#FFF000"/>
<path d="M138.034 544.85C137.464 544.14 136.934 543.48 136.604 542.92C134.704 539.7 133.184 536.81 131.974 534.07C128.934 527.19 127.344 520.18 127.254 513.22C127.254 512.59 127.514 512.02 127.954 511.74C131.574 509.37 135.284 506.77 139.304 503.8C140.184 503.15 141.174 502.49 142.214 501.79C144.934 499.98 148.004 497.92 149.864 495.5C150.574 494.57 150.424 493.26 150.174 492.31C149.614 490.23 148.004 487.88 146.254 487.53C145.484 487.38 144.754 487.61 144.154 488.22C139.864 492.58 134.974 496.64 129.194 500.62C128.684 500.97 128.214 500.84 127.984 500.72C127.574 500.52 127.154 500.03 127.184 499.26C127.224 498.25 127.244 497.5 127.254 496.9C127.294 495.46 127.454 493.876 127.734 492.15L127.884 491.25C128.034 490.35 127.754 489.45 127.134 488.85C126.594 488.32 125.844 488.09 125.094 488.22L121.054 488.91C119.814 489.12 118.864 490.24 118.794 491.58C118.764 492.1 118.724 492.62 118.624 493.35C118.624 493.41 118.604 493.48 118.604 493.54C118.244 507.63 118.004 507.64 118.064 514.88C118.164 525.96 118.584 537.59 121.154 548.21L121.284 548.74C122.434 553.59 123.744 559.09 126.424 563.37C127.104 564.46 127.864 565.04 128.694 565.1C128.814 565.1 128.934 565.1 129.054 565.1C133.214 564.68 136.004 559.43 137.874 556.26C141.724 549.72 141.684 549.37 138.034 544.83V544.85Z" fill="#FFF000"/>
<mask id="mask0_491_41" style="mask-type:luminance" maskUnits="userSpaceOnUse" x="65" y="511" width="46" height="12">
<path d="M83.1159 513.21L72.3059 511.83L66.2959 513.21L65.0859 520.7L70.7059 522.6L80.1359 522.01L80.8759 521.41H93.1559L98.2259 522.45L106.386 522.61C106.386 522.61 110.266 521.99 110.276 521.82C110.286 521.65 110.626 517.65 110.626 517.65L110.036 514.69L109.286 513.28L106.556 512.53L100.886 513.23C100.886 513.23 83.5359 513.15 83.1159 513.23V513.21Z" fill="white"/>
</mask>
<g mask="url(#mask0_491_41)">
<path d="M105.223 529C104.613 529.07 104.043 529.15 103.623 529.15C100.743 529.19 97.8634 529.18 94.9834 529.18H92.3134C91.9034 529.18 91.5234 529 91.2534 528.67C90.9434 528.31 90.8134 527.83 90.8934 527.36L91.7734 522.65C91.8934 521.93 92.4734 521.41 93.1434 521.41H100.333C101.003 521.41 101.723 521.48 102.483 521.56C105.003 521.82 108.123 522.15 109.503 518.98C110.183 517.41 110.093 515.56 109.283 514.37C108.623 513.42 107.543 512.95 106.253 513.05C104.753 513.16 103.243 513.21 101.633 513.21H95.1134C94.7034 513.21 94.3234 513.03 94.0534 512.7C93.7434 512.34 93.6234 511.86 93.7034 511.38L94.5534 506.38C94.6734 505.66 95.2534 505.14 95.9234 505.14H101.423C101.933 505.14 102.503 505.2 103.113 505.26C104.883 505.45 106.893 505.65 108.273 504.38C109.643 503.11 110.243 499.99 109.443 498.31C108.463 496.27 105.953 496.53 104.113 496.73C103.613 496.78 103.133 496.83 102.723 496.83H97.8934C97.4834 496.83 97.1034 496.65 96.8334 496.32C96.5234 495.96 96.4034 495.48 96.4834 495L97.4534 489.29C97.5334 488.82 97.8334 488.45 98.2234 488.2C108.533 481.63 113.843 476.83 120.893 471.64C122.573 470.35 123.833 469.41 124.723 468.75C125.863 467.91 126.203 466.31 125.503 465.09C125.303 464.75 125.133 464.41 124.963 464.08C124.303 462.78 123.623 461.43 121.813 460.82C120.383 460.33 118.903 460.39 117.473 460.46C102.553 461.05 94.7434 461.5 77.4334 460.3C74.2534 460.08 72.2434 460.61 71.3734 464.05C70.8534 466.1 69.9834 469.54 72.9034 470.39C75.5134 471.15 76.8134 470.87 82.1034 470.65C83.2034 470.6 84.2334 470.56 85.1134 470.53L86.3634 470.49C93.7034 470.25 96.7934 470 104.033 470C104.853 470 105.303 470.63 105.423 471.17C105.553 471.7 105.393 472.34 104.793 472.86C100.383 476.69 100.083 477.4 92.9534 482.09C92.7734 482.21 92.5534 482.23 92.3534 482.23H91.5534C90.1734 482.23 88.9834 483.36 88.8634 484.8C88.6734 487.04 88.3734 489.22 87.7534 492.87L87.2934 495.6C87.1734 496.32 86.5934 496.84 85.9234 496.84H80.9934C80.5634 496.84 80.0134 496.77 79.4234 496.7C77.8134 496.51 75.9934 496.29 74.8534 497.18C73.3834 498.33 72.7134 500.91 73.3534 502.93C73.8734 504.55 75.1134 505.42 76.7234 505.34C79.1234 505.21 81.4834 505.15 83.9534 505.15C84.3634 505.15 84.7434 505.33 85.0134 505.66C85.3234 506.02 85.4434 506.5 85.3634 506.98L84.5134 511.98C84.3934 512.7 83.8134 513.22 83.1434 513.22H76.9734C76.2434 513.22 75.5134 513.14 74.8034 513.06C72.5734 512.82 70.2734 512.57 68.3834 514.93C67.5234 516 66.8134 517.77 67.1634 519.29C67.3934 520.3 68.0634 521.04 69.0834 521.43C70.3334 521.9 72.1334 521.72 73.7134 521.55C74.4434 521.47 75.1234 521.4 75.6834 521.4H81.1934C81.6034 521.4 81.9834 521.58 82.2534 521.91C82.5634 522.27 82.6834 522.75 82.6134 523.22L81.7434 527.93C81.6234 528.65 81.0434 529.17 80.3734 529.17H68.6734C67.9434 529.17 67.1534 529.09 66.3934 529.01C65.3234 528.9 64.2134 528.79 63.1734 528.88C60.3234 529.12 60.0234 531.77 59.8134 533.7C59.7134 534.59 59.4034 535.49 59.5134 536.38C59.7534 538.27 63.3934 537.86 64.7034 537.92C68.4034 538.07 72.1134 538.09 75.8334 537.86C76.9734 537.78 77.8734 537.72 78.3534 537.72C78.7734 537.72 79.1434 537.9 79.4234 538.23C79.7334 538.59 79.8534 539.07 79.7734 539.56L78.0334 549.35C77.6234 551.74 77.5634 552.34 74.5934 552.25C72.2934 552.18 69.6734 551.71 66.9134 551.14C65.3734 550.82 63.7834 550.5 62.1434 550.23C61.3334 550.1 60.6734 550.25 60.1434 550.67C59.5034 551.18 59.1534 552.02 59.0634 553.24C59.0334 553.71 58.9234 554.43 58.8134 555.24C58.6234 556.57 58.4134 558.07 58.3834 559.15C58.3534 560.57 59.4034 561.76 60.7634 561.85C64.3534 562.09 67.5434 562.19 71.4134 562.19C76.9334 562.19 80.0734 562.12 82.3434 560.56C85.0234 559.03 86.0334 555.76 86.8034 551.22L88.9634 538.96C89.0834 538.24 89.6634 537.72 90.3334 537.72H101.803C102.413 537.72 103.133 537.79 103.893 537.87C106.193 538.11 108.793 538.38 110.413 536.9C112.013 535.43 112.783 532 111.403 530.1C110.163 528.39 107.333 528.74 105.263 528.99L105.223 529Z" fill="white"/>
</g>
<path d="M278.785 535.25C275.885 535.44 273.015 535.53 270.005 535.53H243.525C243.445 535.53 243.245 535.53 243.205 535.43C243.145 535.31 243.195 534.91 243.575 534.38C243.685 534.23 243.815 534.05 243.955 533.87C245.005 532.49 246.685 531.97 244.525 530.31C243.155 529.26 241.335 528.46 239.565 528.21C238.835 528.11 237.935 528.08 237.285 528.56C236.555 529.1 236.045 529.94 235.535 530.67C235.015 531.41 234.525 532.24 233.995 533.01C233.425 533.84 233.245 534.37 232.335 535.29C231.885 535.75 230.695 535.52 230.095 535.52H220.855C218.815 535.52 216.515 535.52 214.255 535.38C213.935 535.36 213.625 535.33 213.325 535.3C211.705 535.14 209.875 534.95 209.085 537.51C208.585 539.13 208.475 541 208.375 542.65V542.79C208.295 544.02 208.945 544.79 210.205 544.96C212.115 545.23 214.015 545.05 215.865 544.88C216.995 544.78 218.165 544.67 219.295 544.67H222.175C222.505 544.67 222.795 544.87 222.935 545.21C223.045 545.48 223.065 545.87 222.795 546.19C220.645 548.71 218.595 550.95 216.545 553.03C216.295 553.28 215.965 553.55 215.605 553.85C214.355 554.89 212.795 556.18 212.875 557.78C212.945 559.24 214.715 559.73 215.885 560.05C216.125 560.12 216.345 560.18 216.525 560.24C217.145 560.45 217.765 560.66 218.385 560.87C219.435 561.22 220.485 561.57 221.525 561.95C224.275 562.97 226.805 563.99 229.245 565.06C229.665 565.24 229.795 565.67 229.775 565.98C229.775 566.14 229.705 566.54 229.305 566.72C224.715 568.86 219.955 570.55 215.175 571.74C212.735 572.35 210.105 572.87 207.365 573.3C205.465 573.6 203.745 573.85 202.025 573.96L201.665 573.98C200.835 574.01 199.795 574.06 199.055 574.78C197.545 576.26 198.935 579.44 199.775 581.33L200.015 581.89C200.935 584.08 202.715 584.92 205.175 584.34C217.965 581.3 229.975 576.53 239.895 570.52C240.105 570.39 240.385 570.38 240.625 570.5C245.615 573.05 250.115 576.47 253.865 579.47C254.445 579.93 255.035 580.4 255.625 580.86C257.655 582.45 259.755 584.09 261.505 585.94C262.035 586.5 262.615 587.08 263.365 587.45C263.865 587.7 264.315 587.8 264.725 587.8C266.015 587.8 266.895 586.78 267.575 585.98C267.735 585.79 267.895 585.6 268.065 585.42C268.665 584.78 269.325 584.17 269.965 583.57C270.835 582.77 271.735 581.93 272.525 580.99C273.205 580.17 273.495 579.33 273.375 578.47C273.215 577.33 272.305 576.24 270.805 575.4C268.965 574.36 267.135 573.31 265.295 572.25C260.525 569.5 255.585 566.65 250.545 564.22C250.255 564.08 250.065 563.8 250.035 563.46C250.005 563.17 250.095 562.91 250.295 562.73C255.975 557.46 260.315 551.89 263.205 546.16C263.385 545.81 263.585 545.51 263.795 545.29C264.565 544.49 265.515 544.51 267.125 544.62C268.605 544.72 270.295 544.72 271.875 544.8C272.945 544.85 274.045 544.91 275.125 544.91C275.375 544.92 275.655 544.95 275.945 544.98C277.005 545.09 278.215 545.21 279.175 544.64C280.735 543.71 280.945 541.62 281.095 540.1C281.125 539.82 281.145 539.55 281.185 539.31C281.405 537.7 281.195 536.55 280.575 535.89C280.145 535.43 279.545 535.22 278.775 535.27L278.785 535.25ZM253.245 546.07C250.305 551.22 246.735 555.27 241.325 559.61C241.105 559.78 240.815 559.82 240.555 559.71C236.765 558.07 233.745 556.93 227.625 554.82C227.335 554.72 227.115 554.46 227.045 554.13C226.985 553.83 227.065 553.53 227.255 553.32C230.355 549.97 231.925 548.21 234.605 544.96C234.755 544.78 234.965 544.67 235.185 544.67H252.535C252.825 544.67 253.095 544.84 253.255 545.12C253.425 545.42 253.425 545.78 253.255 546.07H253.245Z" fill="#FFF000"/>
<path d="M199.903 535.84C202.223 535.1 204.623 534.34 206.323 532.69C207.733 531.32 207.893 529.52 208.043 527.93C208.103 527.29 208.153 526.68 208.283 526.12C208.523 525.03 208.133 524.5 207.753 524.25C206.503 523.4 203.783 524.47 201.043 525.76C200.793 525.88 200.593 525.97 200.493 526.01C200.123 526.16 199.803 525.99 199.683 525.91C199.443 525.75 199.213 525.42 199.293 524.99L202.373 507.48C202.443 507.07 202.783 506.78 203.183 506.78H205.653C206.233 506.78 206.963 506.87 207.733 506.96C209.903 507.23 212.363 507.53 213.693 506.13C214.643 505.14 214.783 503.6 214.913 502.25C214.963 501.73 215.013 501.23 215.093 500.83C215.343 499.69 215.163 498.81 214.573 498.21C213.393 497.02 210.993 497.28 208.873 497.5C208.183 497.57 207.523 497.64 207.023 497.64C206.833 497.64 206.613 497.65 206.383 497.66C205.393 497.72 204.673 497.72 204.453 497.23C204.303 496.89 204.343 496.48 204.423 495.97C205.023 491.97 205.733 487.94 206.553 483.99C206.653 483.51 206.863 482.85 207.083 482.16C207.843 479.78 208.793 476.81 207.363 475.32C206.113 474.01 201.413 473.61 198.843 474.59C197.183 475.22 196.893 476.23 196.873 476.77C196.763 479.98 196.413 482.92 195.653 487.26L193.943 496.94C193.873 497.35 193.533 497.64 193.133 497.64H188.603C188.033 497.64 187.153 497.52 186.123 497.38C183.343 497 179.883 496.54 178.083 497.78C177.473 498.2 177.093 498.78 176.973 499.49C176.923 499.78 176.813 500.18 176.683 500.65C176.083 502.82 175.173 506.11 177.553 506.91C178.483 507.22 179.443 507.07 180.293 506.94C181.823 506.7 183.533 506.74 185.193 506.77C185.763 506.78 186.323 506.79 186.873 506.79H191.143C191.393 506.79 191.623 506.9 191.803 507.09C192.003 507.31 192.083 507.59 192.033 507.87L188.123 530.08C188.073 530.39 187.843 530.65 187.553 530.74C183.123 532.18 178.993 533.42 174.933 534.53C174.493 534.65 173.813 534.75 173.103 534.85C170.803 535.18 167.943 535.6 167.213 537.41C166.963 538.03 167.003 538.69 167.033 539.22C167.063 539.75 167.053 540.32 167.043 540.89C167.013 542.65 166.973 544.46 168.173 545.42C168.843 545.95 169.813 546.14 171.063 545.98C173.073 545.72 174.963 544.97 176.793 544.24C177.753 543.86 178.653 543.5 179.583 543.2C181.043 542.73 182.103 542.36 183.853 541.75L184.783 541.43C185.163 541.3 185.463 541.48 185.583 541.56C185.873 541.77 186.013 542.12 185.953 542.46C185.093 547.42 184.393 552.62 183.303 557.64C182.633 560.71 181.483 565.4 177.423 565.33C174.653 565.28 172.803 564.93 169.873 564.08C167.383 563.36 165.413 563.37 163.913 564.04C161.283 565.23 160.543 574.36 160.563 574.62C160.903 578.24 164.763 578.84 168.203 578.84C169.173 578.84 170.103 578.79 170.923 578.75L171.553 578.72C173.953 578.61 178.973 577.8 181.833 577.05C189.973 574.91 191.523 567.32 192.823 560.36C194.073 553.67 195.313 546.99 196.563 540.3C196.753 539.29 197.033 538.25 197.133 537.24C197.183 536.95 197.383 536.7 197.663 536.59C198.373 536.32 199.143 536.08 199.913 535.83L199.903 535.84Z" fill="#FFF000"/>
<path d="M277.833 513.42C277.533 513.46 277.253 513.5 277.023 513.52C274.833 513.65 272.693 513.67 270.893 513.67H264.213C263.893 513.67 263.623 513.48 263.483 513.16C263.373 512.9 263.333 512.51 263.583 512.18C265.233 509.99 266.973 507.61 268.533 505.04C268.743 504.69 268.993 504.33 269.253 503.96C270.143 502.67 271.163 501.21 271.143 499.55C271.143 499.09 271.023 498.71 270.793 498.43C270.523 498.09 270.133 497.95 269.843 497.84C269.563 497.74 269.273 497.62 268.983 497.5C267.483 496.88 265.773 496.19 264.153 496.81C262.553 497.42 261.643 499.34 260.923 500.87C260.723 501.29 260.533 501.7 260.343 502.04C258.213 505.87 255.913 509.9 253.183 513.37C253.043 513.55 252.823 513.66 252.603 513.66C249.503 513.66 246.403 513.7 243.303 513.74C239.363 513.79 235.283 513.85 231.283 513.81H229.353C227.043 513.79 224.653 513.77 222.323 513.63C221.983 513.61 221.593 513.54 221.163 513.47C219.573 513.21 217.393 512.85 216.383 514.48C215.703 515.57 215.553 516.84 215.453 518.04C215.433 518.3 215.373 518.61 215.313 518.94C215.133 519.92 214.903 521.15 215.413 522.03C216.153 523.26 217.673 523.1 218.783 522.99C219.023 522.97 219.253 522.94 219.463 522.93C221.073 522.88 222.693 522.84 224.303 522.81C227.213 522.75 230.383 522.73 234.003 522.72C237.383 522.72 240.743 522.73 244.123 522.75C249.533 522.78 255.023 522.8 260.323 522.67C265.573 522.54 271.003 522.4 276.423 523.02C276.933 523.08 277.453 523.14 277.973 523.14C278.463 523.14 278.953 523.09 279.443 522.93C281.443 522.29 281.753 519.99 281.863 519.12C281.883 518.95 281.913 518.75 281.953 518.52C282.213 516.82 282.403 515.22 281.913 514.33C281.143 512.94 279.163 513.21 277.843 513.4L277.833 513.42Z" fill="#FFF000"/>
<path d="M284.365 484.37C283.885 484.24 283.415 484.26 282.985 484.28L281.205 484.35C278.855 484.45 276.435 484.55 274.055 484.55H258.345C258.115 484.55 257.905 484.44 257.745 484.25C257.565 484.03 257.495 483.75 257.545 483.47L257.625 482.92C257.745 482.19 257.855 482.01 258.075 481.25C258.485 479.83 258.345 480.55 258.665 479.09C259.245 476.5 256.675 476.66 253.245 476.62C252.735 476.62 252.255 476.72 251.845 476.72C251.825 476.72 251.815 476.72 251.795 476.72C250.595 476.72 249.825 476.94 249.305 477.44C248.605 478.11 248.515 479.09 248.445 480.51C248.365 482.11 248.445 481.25 248.175 482.82L248.015 483.85C247.945 484.26 247.635 484.55 247.265 484.55C245.465 484.55 243.655 484.57 241.845 484.6C237.975 484.65 233.975 484.71 230.065 484.5C229.495 484.47 228.825 484.37 228.125 484.26C226.475 484.01 224.615 483.72 223.175 484.29C221.525 484.94 220.755 488.14 220.735 490.21C220.715 492.3 221.365 493.66 222.515 493.94C223.125 494.09 223.745 494.14 224.335 494.14C224.765 494.14 225.185 494.11 225.575 494.09C227.705 493.93 229.915 493.81 232.315 493.7C247.535 493.06 263.275 493.09 279.115 493.81C279.415 493.82 279.775 493.87 280.155 493.92C281.785 494.13 284.015 494.42 284.855 492.53C285.205 491.74 285.265 490.89 285.325 490.07C285.355 489.69 285.385 489.31 285.445 488.95C285.485 488.74 285.535 488.5 285.595 488.25C285.895 487 286.405 484.9 284.365 484.37Z" fill="#FFF000"/>
<path d="M231.926 503.92C232.386 505.39 232.626 506.98 232.856 508.52L232.936 509.06C233.096 510.12 233.466 510.8 234.066 511.16C234.396 511.36 234.766 511.44 235.166 511.44C235.866 511.44 236.636 511.2 237.386 510.96C237.606 510.89 237.826 510.82 238.046 510.76C239.276 510.4 242.546 509.44 242.006 506.45L241.766 505.05C241.246 501.99 240.706 498.82 239.226 496.01L239.196 495.96C238.856 495.32 238.316 494.9 237.706 494.8C236.656 494.64 235.036 495.27 233.866 495.74L233.416 495.92C232.666 496.21 230.676 496.97 230.406 498.88C230.216 500.19 230.766 501.34 231.296 502.45C231.536 502.96 231.766 503.44 231.916 503.92H231.926Z" fill="white"/>
<mask id="mask1_491_41" style="mask-type:luminance" maskUnits="userSpaceOnUse" x="164" y="523" width="46" height="25">
<path d="M182.233 531.64C182.233 531.64 167.553 534.48 167.293 534.48C167.033 534.48 165.803 537.84 165.803 537.84C165.803 537.84 164.963 545.4 164.953 545.56C164.943 545.72 169.053 547.45 169.053 547.45L178.733 544.68L182.523 543.31L184.783 541.45L197.663 536.61L202.233 536.22L207.373 533.75L209.553 525.82L208.813 524.03L204.473 523.16L201.473 525.57C200.123 526.16 187.563 530.75 187.563 530.75L186.703 530.31L183.733 531.33L182.233 531.65V531.64Z" fill="white"/>
</mask>
<g mask="url(#mask1_491_41)">
<path d="M199.903 535.84C202.223 535.1 204.623 534.34 206.323 532.69C207.733 531.32 207.893 529.52 208.043 527.93C208.103 527.29 208.153 526.68 208.283 526.12C208.523 525.03 208.133 524.5 207.753 524.25C206.503 523.4 203.783 524.47 201.043 525.76C200.793 525.88 200.593 525.97 200.493 526.01C200.123 526.16 199.803 525.99 199.683 525.91C199.443 525.75 199.213 525.42 199.293 524.99L202.373 507.48C202.443 507.07 202.783 506.78 203.183 506.78H205.653C206.233 506.78 206.963 506.87 207.733 506.96C209.903 507.23 212.363 507.53 213.693 506.13C214.643 505.14 214.783 503.6 214.913 502.25C214.963 501.73 215.013 501.23 215.093 500.83C215.343 499.69 215.163 498.81 214.573 498.21C213.393 497.02 210.993 497.28 208.873 497.5C208.183 497.57 207.523 497.64 207.023 497.64C206.833 497.64 206.613 497.65 206.383 497.66C205.393 497.72 204.673 497.72 204.453 497.23C204.303 496.89 204.343 496.48 204.423 495.97C205.023 491.97 205.733 487.94 206.553 483.99C206.653 483.51 206.863 482.85 207.083 482.16C207.843 479.78 208.793 476.81 207.363 475.32C206.113 474.01 201.413 473.61 198.843 474.59C197.183 475.22 196.893 476.23 196.873 476.77C196.763 479.98 196.413 482.92 195.653 487.26L193.943 496.94C193.873 497.35 193.533 497.64 193.133 497.64H188.603C188.033 497.64 187.153 497.52 186.123 497.38C183.343 497 179.883 496.54 178.083 497.78C177.473 498.2 177.093 498.78 176.973 499.49C176.923 499.78 176.813 500.18 176.683 500.65C176.083 502.82 175.173 506.11 177.553 506.91C178.483 507.22 179.443 507.07 180.293 506.94C181.823 506.7 183.533 506.74 185.193 506.77C185.763 506.78 186.323 506.79 186.873 506.79H191.143C191.393 506.79 191.623 506.9 191.803 507.09C192.003 507.31 192.083 507.59 192.033 507.87L188.123 530.08C188.073 530.39 187.843 530.65 187.553 530.74C183.123 532.18 178.993 533.42 174.933 534.53C174.493 534.65 173.813 534.75 173.103 534.85C170.803 535.18 167.943 535.6 167.213 537.41C166.963 538.03 167.003 538.69 167.033 539.22C167.063 539.75 167.053 540.32 167.043 540.89C167.013 542.65 166.973 544.46 168.173 545.42C168.843 545.95 169.813 546.14 171.063 545.98C173.073 545.72 174.963 544.97 176.793 544.24C177.753 543.86 178.653 543.5 179.583 543.2C181.043 542.73 182.103 542.36 183.853 541.75L184.783 541.43C185.163 541.3 185.463 541.48 185.583 541.56C185.873 541.77 186.013 542.12 185.953 542.46C185.093 547.42 184.393 552.62 183.303 557.64C182.633 560.71 181.483 565.4 177.423 565.33C174.653 565.28 172.803 564.93 169.873 564.08C167.383 563.36 165.413 563.37 163.913 564.04C161.283 565.23 160.543 574.36 160.563 574.62C160.903 578.24 164.763 578.84 168.203 578.84C169.173 578.84 170.103 578.79 170.923 578.75L171.553 578.72C173.953 578.61 178.973 577.8 181.833 577.05C189.973 574.91 191.523 567.32 192.823 560.36C194.073 553.67 195.313 546.99 196.563 540.3C196.753 539.29 197.033 538.25 197.133 537.24C197.183 536.95 197.383 536.7 197.663 536.59C198.373 536.32 199.143 536.08 199.913 535.83L199.903 535.84Z" fill="white"/>
</g>
<path d="M387.415 477.34C387.505 476.82 387.595 476.37 387.855 476.13C388.155 475.85 388.765 475.82 389.335 475.84L404.135 475.97C405.455 475.98 406.685 476.1 407.865 476.22C410.025 476.44 412.075 476.64 414.465 476.18C417.115 475.67 419.185 472.13 419.135 469.53C419.095 467.43 417.735 466.18 415.495 466.18H415.455C411.515 466.21 407.945 466.42 404.485 466.62C400.025 466.88 395.815 467.13 390.905 467.02C390.415 467.01 389.955 466.98 389.705 466.74C389.375 466.42 389.455 465.78 389.575 465.19C389.625 464.93 389.725 464.54 389.845 464.08C390.095 463.1 391.405 461.07 390.485 460.21C390.245 459.98 389.875 459.94 389.535 459.91C387.745 459.75 385.965 459.55 384.155 459.52C383.005 459.5 381.305 459.65 381.005 461.1C380.625 462.94 380.635 462.52 380.445 463.71C380.345 464.3 380.355 464.16 380.235 464.76C380.205 464.91 380.185 465.07 380.165 465.22C380.105 465.65 380.045 466.06 379.835 466.26C379.555 466.52 379.005 466.56 378.465 466.57C373.165 466.72 366.185 466.79 359.225 466.01C356.615 465.72 353.035 465.31 351.285 469.1C350.715 470.34 350.045 473.48 351.095 475.11C351.545 475.8 352.245 476.15 353.155 476.12C358.735 475.91 364.435 475.89 369.955 475.87C372.255 475.87 374.565 475.85 376.865 475.83C377.365 475.83 377.955 475.86 378.145 476.18C378.265 476.38 378.225 476.7 378.165 477.06L376.785 483.75C376.715 484.14 376.635 484.62 376.405 484.87C376.085 485.2 375.405 485.22 374.785 485.21L354.475 484.86C353.395 484.84 351.925 484.82 350.775 485.59C349.295 486.58 348.885 488.42 348.625 490.07L344.555 515.68C344.405 516.66 344.295 517.69 344.895 518.53C345.655 519.6 347.065 519.71 348.365 519.68L353.965 519.53C356.075 519.47 358.505 519.56 360.845 519.65C363.205 519.74 365.635 519.83 367.795 519.77C368.245 519.75 369.045 519.8 369.185 520.2C369.245 520.38 369.165 520.64 369.075 520.92C367.915 524.32 365.005 528.79 363.115 531.83L362.575 532.7C362.495 532.83 362.305 533.13 362.175 533.16C362.115 533.17 361.885 533.18 361.395 532.64C360.155 531.26 359.575 530.38 358.425 528.92C357.445 527.67 356.175 526.12 354.275 526.7C352.785 527.16 351.255 528.63 350.055 529.64C348.205 531.19 349.335 533.16 350.475 534.53C351.365 535.6 351.765 536.13 352.575 537.29C353.145 538.1 354.955 539.76 354.935 540.68C354.935 541 354.235 541.48 353.845 541.83C348.365 546.74 345.985 547.66 338.285 550.48C337.785 550.66 337.195 550.82 336.575 550.99C334.805 551.46 332.975 551.96 332.215 553.22C331.865 553.81 331.865 554.47 332.025 555.24C332.775 558.97 335.205 565.16 338.645 564.62C342.215 564.07 348.675 557.13 353.475 553.25C355.585 551.54 358.145 548.39 361.135 546.39C361.535 546.12 361.865 545.92 362.205 545.91C363.095 545.9 363.775 546.68 364.395 547.18C365.215 547.84 366.075 548.44 366.925 549.07C368.755 550.41 370.595 551.74 372.465 553.03C376.025 555.49 379.675 557.85 383.455 559.99C387.805 562.46 392.335 564.65 397.105 566.32C398.485 566.8 399.835 567.23 401.205 567.23C401.575 567.23 401.935 567.2 402.305 567.13C405.465 566.55 407.295 563.59 408.795 560.48C409.155 559.74 410.745 555.39 409.455 553.94C408.665 553.05 407.395 552.96 406.475 552.9C394.275 552.06 381.485 547.11 370.295 539C369.685 538.56 369.325 538.23 369.285 537.96C369.285 537.89 369.285 537.77 369.425 537.58C372.065 534.13 373.685 530.94 375.245 527.86C375.875 526.63 376.495 525.39 377.195 524.13C377.405 523.75 377.605 523.3 377.825 522.83C378.335 521.71 378.905 520.44 379.735 519.9C380.345 519.49 381.205 519.48 382.185 519.51C385.715 519.61 388.995 519.58 392.175 519.55C395.345 519.52 398.615 519.49 402.125 519.59C404.115 519.64 406.535 519.47 407.615 517.61C407.965 517 408.085 516.31 408.185 515.71L412.595 489.16C412.695 488.57 412.815 487.83 412.595 487.11C412.265 486.01 411.135 484.72 407.515 484.79L387.215 485.22C386.755 485.22 386.255 485.2 386.065 484.95C385.915 484.74 385.965 484.37 386.025 484L387.415 477.32V477.34ZM384.935 495.68H401.735C401.865 495.68 401.995 495.74 402.075 495.84C402.105 495.88 402.165 495.97 402.145 496.07L400.015 508C399.995 508.12 399.865 508.21 399.705 508.21H382.205C382.065 508.21 381.925 508.15 381.845 508.04C381.815 508 381.765 507.91 381.785 507.81C382.985 503.43 383.585 500.72 384.615 495.9C384.645 495.78 384.775 495.69 384.935 495.69V495.68ZM372.685 501.22C372.195 502.91 371.685 504.65 371.335 506.38C371.235 506.88 371.115 507.36 370.845 507.75C370.315 508.5 369.355 508.49 367.945 508.38C367.615 508.36 367.295 508.33 366.995 508.33C366.285 508.33 365.575 508.3 364.865 508.28C363.945 508.25 363.025 508.23 362.095 508.23C362.015 508.23 361.945 508.23 361.865 508.23L357.425 508.25C357.195 508.25 356.935 508.27 356.675 508.28C355.455 508.36 354.645 508.36 354.395 507.68C354.265 507.32 354.225 506.94 354.295 506.61C354.625 505.01 354.845 503.64 355.045 502.43C355.415 500.1 355.715 498.26 356.595 495.99C356.725 495.66 357.265 495.37 357.855 495.32C359.625 495.17 361.205 495.28 362.735 495.39C363.125 495.42 363.515 495.44 363.895 495.47C366.535 495.63 368.755 495.71 371.035 495.64C372.255 495.6 373.015 495.79 373.355 496.23C373.715 496.69 373.715 497.55 373.355 498.88C373.145 499.66 372.915 500.45 372.685 501.24V501.22Z" fill="#FFF000"/>
<path d="M337.742 480.6C338.942 478.53 340.162 476.47 341.372 474.4C343.312 471.1 344.502 467.7 346.422 464.31L346.702 463.82C347.712 462.09 349.082 459.73 347.122 457.8C346.002 456.7 343.052 455.35 340.812 455.68C339.852 455.82 339.092 456.26 338.632 456.96C338.232 457.57 338.042 458.23 337.832 458.96C334.932 469.18 329.702 477.79 325.142 483.22C321.962 487 317.642 489.53 313.662 492.36C312.162 493.43 308.402 495.13 307.582 496.83C306.192 499.7 308.202 502.59 309.342 505.22C310.222 507.26 310.512 509.65 312.442 510.93C315.262 512.8 317.562 508.77 318.992 506.63L319.282 506.2C320.012 505.14 321.032 503.37 321.892 501.84C322.802 500.21 324.312 497.88 325.112 496.77C325.222 496.62 325.322 496.53 325.382 496.48C325.382 496.54 325.382 496.62 325.362 496.73C325.032 498.35 324.802 499.84 324.542 501.55C324.332 502.95 323.872 505.62 323.542 507.44C322.282 515.61 322.092 517.73 320.832 525.9C319.792 532.62 317.922 545.21 316.032 551.83C315.472 553.78 313.762 558.92 313.902 560.14C314.222 562.87 317.792 562.34 320.132 562.34C321.142 562.34 323.242 562.15 323.862 562.17C328.062 562.34 326.962 556.37 327.762 551.3C329.932 537.56 331.772 513.56 334.122 500.45C335.312 494 336.552 487.34 337.682 480.76C337.692 480.7 337.712 480.64 337.752 480.57L337.742 480.6Z" fill="#FFF000"/>
<mask id="mask2_491_41" style="mask-type:luminance" maskUnits="userSpaceOnUse" x="347" y="524" width="65" height="47">
<path d="M347.273 534.89L347.773 528.83L353.733 524.41C353.733 524.41 359.123 525.46 359.093 525.81C359.063 526.16 362.163 533.18 362.163 533.18C362.163 533.18 371.563 539.98 373.113 540.98C374.653 541.98 392.503 546.76 392.503 546.76L405.793 549.28L410.683 552.11L411.783 558.16L408.683 567.82L400.913 570.26L364.583 550.32L362.413 545.92C362.413 545.92 357.153 543.26 354.853 540.29L351.603 537.61L347.283 534.87L347.273 534.89Z" fill="white"/>
</mask>
<g mask="url(#mask2_491_41)">
<path d="M387.415 477.34C387.505 476.82 387.595 476.37 387.855 476.13C388.155 475.85 388.765 475.82 389.335 475.84L404.135 475.97C405.455 475.98 406.685 476.1 407.865 476.22C410.025 476.44 412.075 476.64 414.465 476.18C417.115 475.67 419.185 472.13 419.135 469.53C419.095 467.43 417.735 466.18 415.495 466.18H415.455C411.515 466.21 407.945 466.42 404.485 466.62C400.025 466.88 395.815 467.13 390.905 467.02C390.415 467.01 389.955 466.98 389.705 466.74C389.375 466.42 389.455 465.78 389.575 465.19C389.625 464.93 389.725 464.54 389.845 464.08C390.095 463.1 391.405 461.07 390.485 460.21C390.245 459.98 389.875 459.94 389.535 459.91C387.745 459.75 385.965 459.55 384.155 459.52C383.005 459.5 381.305 459.65 381.005 461.1C380.625 462.94 380.635 462.52 380.445 463.71C380.345 464.3 380.355 464.16 380.235 464.76C380.205 464.91 380.185 465.07 380.165 465.22C380.105 465.65 380.045 466.06 379.835 466.26C379.555 466.52 379.005 466.56 378.465 466.57C373.165 466.72 366.185 466.79 359.225 466.01C356.615 465.72 353.035 465.31 351.285 469.1C350.715 470.34 350.045 473.48 351.095 475.11C351.545 475.8 352.245 476.15 353.155 476.12C358.735 475.91 364.435 475.89 369.955 475.87C372.255 475.87 374.565 475.85 376.865 475.83C377.365 475.83 377.955 475.86 378.145 476.18C378.265 476.38 378.225 476.7 378.165 477.06L376.785 483.75C376.715 484.14 376.635 484.62 376.405 484.87C376.085 485.2 375.405 485.22 374.785 485.21L354.475 484.86C353.395 484.84 351.925 484.82 350.775 485.59C349.295 486.58 348.885 488.42 348.625 490.07L344.555 515.68C344.405 516.66 344.295 517.69 344.895 518.53C345.655 519.6 347.065 519.71 348.365 519.68L353.965 519.53C356.075 519.47 358.505 519.56 360.845 519.65C363.205 519.74 365.635 519.83 367.795 519.77C368.245 519.75 369.045 519.8 369.185 520.2C369.245 520.38 369.165 520.64 369.075 520.92C367.915 524.32 365.005 528.79 363.115 531.83L362.575 532.7C362.495 532.83 362.305 533.13 362.175 533.16C362.115 533.17 361.885 533.18 361.395 532.64C360.155 531.26 359.575 530.38 358.425 528.92C357.445 527.67 356.175 526.12 354.275 526.7C352.785 527.16 351.255 528.63 350.055 529.64C348.205 531.19 349.335 533.16 350.475 534.53C351.365 535.6 351.765 536.13 352.575 537.29C353.145 538.1 354.955 539.76 354.935 540.68C354.935 541 354.235 541.48 353.845 541.83C348.365 546.74 345.985 547.66 338.285 550.48C337.785 550.66 337.195 550.82 336.575 550.99C334.805 551.46 332.975 551.96 332.215 553.22C331.865 553.81 331.865 554.47 332.025 555.24C332.775 558.97 335.205 565.16 338.645 564.62C342.215 564.07 348.675 557.13 353.475 553.25C355.585 551.54 358.145 548.39 361.135 546.39C361.535 546.12 361.865 545.92 362.205 545.91C363.095 545.9 363.775 546.68 364.395 547.18C365.215 547.84 366.075 548.44 366.925 549.07C368.755 550.41 370.595 551.74 372.465 553.03C376.025 555.49 379.675 557.85 383.455 559.99C387.805 562.46 392.335 564.65 397.105 566.32C398.485 566.8 399.835 567.23 401.205 567.23C401.575 567.23 401.935 567.2 402.305 567.13C405.465 566.55 407.295 563.59 408.795 560.48C409.155 559.74 410.745 555.39 409.455 553.94C408.665 553.05 407.395 552.96 406.475 552.9C394.275 552.06 381.485 547.11 370.295 539C369.685 538.56 369.325 538.23 369.285 537.96C369.285 537.89 369.285 537.77 369.425 537.58C372.065 534.13 373.685 530.94 375.245 527.86C375.875 526.63 376.495 525.39 377.195 524.13C377.405 523.75 377.605 523.3 377.825 522.83C378.335 521.71 378.905 520.44 379.735 519.9C380.345 519.49 381.205 519.48 382.185 519.51C385.715 519.61 388.995 519.58 392.175 519.55C395.345 519.52 398.615 519.49 402.125 519.59C404.115 519.64 406.535 519.47 407.615 517.61C407.965 517 408.085 516.31 408.185 515.71L412.595 489.16C412.695 488.57 412.815 487.83 412.595 487.11C412.265 486.01 411.135 484.72 407.515 484.79L387.215 485.22C386.755 485.22 386.255 485.2 386.065 484.95C385.915 484.74 385.965 484.37 386.025 484L387.415 477.32V477.34ZM384.935 495.68H401.735C401.865 495.68 401.995 495.74 402.075 495.84C402.105 495.88 402.165 495.97 402.145 496.07L400.015 508C399.995 508.12 399.865 508.21 399.705 508.21H382.205C382.065 508.21 381.925 508.15 381.845 508.04C381.815 508 381.765 507.91 381.785 507.81C382.985 503.43 383.585 500.72 384.615 495.9C384.645 495.78 384.775 495.69 384.935 495.69V495.68ZM372.685 501.22C372.195 502.91 371.685 504.65 371.335 506.38C371.235 506.88 371.115 507.36 370.845 507.75C370.315 508.5 369.355 508.49 367.945 508.38C367.615 508.36 367.295 508.33 366.995 508.33C366.285 508.33 365.575 508.3 364.865 508.28C363.945 508.25 363.025 508.23 362.095 508.23C362.015 508.23 361.945 508.23 361.865 508.23L357.425 508.25C357.195 508.25 356.935 508.27 356.675 508.28C355.455 508.36 354.645 508.36 354.395 507.68C354.265 507.32 354.225 506.94 354.295 506.61C354.625 505.01 354.845 503.64 355.045 502.43C355.415 500.1 355.715 498.26 356.595 495.99C356.725 495.66 357.265 495.37 357.855 495.32C359.625 495.17 361.205 495.28 362.735 495.39C363.125 495.42 363.515 495.44 363.895 495.47C366.535 495.63 368.755 495.71 371.035 495.64C372.255 495.6 373.015 495.79 373.355 496.23C373.715 496.69 373.715 497.55 373.355 498.88C373.145 499.66 372.915 500.45 372.685 501.24V501.22Z" fill="white"/>
</g>
<path d="M472.861 532C471.881 531.39 470.481 531.1 468.691 531.13C459.771 531.31 450.721 531.16 441.801 530.67C440.901 530.62 439.881 530.57 438.931 530.93C437.231 531.58 437.151 532.99 437.081 534.13V534.32C436.981 535.72 436.821 537.15 436.661 538.54L436.541 539.56C436.161 542.98 435.691 546.43 435.161 549.8C434.091 556.58 432.771 563.3 431.091 569.94C430.771 571.21 430.491 573.01 431.761 574C432.881 574.88 434.881 574.88 436.731 574.76C437.521 574.71 458.921 574.15 459.561 574.61C460.321 575.16 461.231 575.22 462.081 575.22C462.201 575.22 462.311 575.22 462.421 575.22H462.861C464.481 575.24 466.081 575.08 467.001 573.87C467.931 572.64 468.031 570.7 468.111 568.98C468.141 568.39 468.171 567.83 468.231 567.35C468.551 564.91 468.911 562.44 469.291 560.01C470.341 553.27 471.251 548.23 472.421 543.45C472.561 542.87 472.851 542.09 473.151 541.26C474.301 538.14 475.871 533.87 472.871 532H472.861ZM463.631 540.47L459.641 564.89L459.561 564.98H442.021C441.971 564.98 441.931 564.94 441.911 564.92C441.871 564.87 441.851 564.81 441.861 564.74L445.931 540.22H463.471C463.521 540.22 463.561 540.26 463.581 540.28C463.621 540.33 463.641 540.39 463.631 540.46V540.47Z" fill="#FFF000"/>
<path d="M522.795 528.09C521.965 527.64 520.875 527.72 519.905 527.79C519.675 527.81 519.445 527.82 519.225 527.83C514.095 528.03 508.535 528.1 501.735 528.04H499.925C497.605 528.01 495.215 527.99 492.865 527.91C492.165 527.89 491.425 527.77 490.645 527.65C488.955 527.39 487.205 527.13 485.585 527.72C483.815 528.37 483.685 530.02 483.575 531.34L483.525 531.87C483.305 534.13 483.075 536.34 482.735 538.55C482.235 541.77 481.735 544.99 481.195 548.2C479.045 560.92 475.325 580.23 472.355 592.85C471.825 595.09 470.275 598.37 473.555 598.7C476.945 599.03 484.315 600.76 484.425 595.69C484.745 580.09 489.035 557.69 491.675 542.16C491.765 541.62 491.835 541.06 491.915 540.49C492.055 539.39 492.205 538.26 492.525 537.19C492.525 537.17 492.545 537.09 492.605 537.09C494.195 537.09 495.795 537.11 497.395 537.12C501.375 537.16 505.485 537.21 509.505 536.97C509.655 536.97 509.825 536.95 510.025 536.93C510.755 536.86 512.115 536.73 512.515 537.15C512.805 537.49 512.325 539.49 512.165 540.15C512.085 540.49 512.015 540.79 511.985 540.99L509.415 556.15C509.185 557.55 508.945 558.95 508.695 560.34C508.385 562.12 508.255 562.66 507.655 564.44C506.815 566.91 504.085 567.29 501.935 567.17C500.395 567.09 498.875 566.78 497.725 566.52C497.075 566.37 496.425 566.21 495.775 566.05C495.625 566.01 495.465 565.96 495.295 565.91C494.825 565.76 494.275 565.59 493.785 565.62C493.345 565.64 492.965 565.83 492.715 566.17C492.445 566.54 492.385 566.97 492.345 567.28L491.795 571.47C491.575 573.14 491.635 574.37 491.995 575.32C492.515 576.69 494.185 576.72 494.825 576.73C496.235 576.75 499.665 576.64 501.265 576.56C506.905 576.25 513.295 575.91 516.045 569.22C517.815 564.93 518.405 560.82 519.025 556.47C519.185 555.38 519.345 554.27 519.525 553.14C520.515 546.97 521.515 540.94 522.895 534.97C523.005 534.52 523.145 534.05 523.295 533.58C523.665 532.41 524.055 531.19 523.925 529.96C523.835 529.06 523.455 528.42 522.795 528.06V528.09Z" fill="#FFF000"/>
<path d="M463.11 519.02C463.33 519.09 463.56 519.12 463.8 519.12C464.07 519.12 464.36 519.09 464.64 519.06C464.81 519.04 464.99 519.02 465.16 519.01C475.3 518.34 485.73 518.56 494.72 518.82C497.17 518.89 499.62 518.98 502.07 519.09C502.59 519.11 503.19 519.14 503.77 518.92C504.92 518.48 505.05 517.36 505.12 516.82C505.19 516.2 505.32 515.58 505.45 514.95C505.63 514.03 505.82 513.09 505.86 512.15C505.92 510.74 505.11 509.71 503.8 509.53C503.55 509.5 503.28 509.49 502.98 509.5L501.11 509.61C499.3 509.72 497.43 509.83 495.58 509.88C490.69 510.02 485.76 509.95 480.72 509.87L479.57 509.85C477.67 509.82 475.77 509.79 473.88 509.76C471.48 509.73 469.08 509.69 466.68 509.62H466.55C466.44 509.62 466.32 509.6 466.23 509.61C464.35 509.57 463.31 510.28 463.08 511.76L462.6 514.81C462.56 515.1 462.49 515.38 462.42 515.67C462.28 516.26 462.13 516.87 462.16 517.53C462.19 518.51 462.7 518.89 463.12 519.03L463.11 519.02Z" fill="white"/>
<path d="M536.366 510.6C535.726 510.03 534.686 509.67 533.766 509.36C533.406 509.24 533.076 509.13 532.816 509.01C529.136 507.43 525.596 505.65 522.286 503.73C515.076 499.53 508.996 494.65 504.216 489.22C502.426 487.19 500.806 485.06 499.396 482.88L499.136 482.47C498.146 480.94 497.216 479.5 495.656 478.33C493.376 476.62 489.086 476.12 486.156 477.03C483.256 477.94 481.546 480.52 479.556 482.54C477.036 485.09 474.206 487.44 471.376 489.69C465.796 494.14 459.486 497.69 453.026 500.79C446.576 503.89 440.066 506.97 433.316 509.35C432.516 509.63 432.176 510.1 432.036 510.44C431.646 511.38 432.206 512.46 432.746 513.31C432.976 513.67 433.186 514.38 433.416 515.13C433.966 516.96 435.346 520.37 437.146 520.37C437.216 520.37 437.296 520.37 437.376 520.36C438.556 520.24 439.796 519.53 440.886 518.91C441.256 518.7 441.606 518.5 441.926 518.34C443.526 517.54 445.126 516.73 446.716 515.9C450.196 514.1 453.346 512.38 456.336 510.66C462.536 507.1 469.156 502.23 474.816 497.93C480.886 493.32 483.136 491.34 489.006 485.43C489.026 485.43 489.076 485.43 489.116 485.5C494.016 493 500.316 499.56 507.356 505.31C510.646 508 514.656 511.73 518.206 514.13C520.926 515.97 523.546 517.96 526.416 519.61C529.006 521.1 530.406 520.65 532.376 517.67C532.596 517.33 532.806 517.02 533.026 516.77C534.006 515.65 535.026 514.57 536.066 513.55C537.566 512.08 536.906 511.07 536.386 510.6H536.366Z" fill="#FFF000"/>
<g opacity="0.9">
<path d="M399.938 88.5099V83.5499H454.488V88.5099H399.938ZM401.068 53.1099V41.0699H424.138V35.9399H430.098V41.0699H453.548V53.1099H447.587V45.9699H406.768V53.1099H401.057H401.068ZM409.467 54.6999V50.3299H444.898V54.6999H409.467ZM409.658 80.0799V58.4799H444.648V80.0799H409.658ZM415.298 67.2699H438.747V62.7299H415.298V67.2699ZM415.298 75.8299H438.747V71.2299H415.298V75.8299Z" fill="white"/>
<path d="M491.472 90.2798C490.422 88.2298 489.272 86.5798 488.022 85.3198C494.082 82.7198 498.832 79.0498 502.252 74.2798C500.282 70.1898 498.612 65.3898 497.232 59.8798C496.062 62.0398 494.832 63.9298 493.532 65.5498C492.862 64.7998 491.652 63.7598 489.892 62.4198C487.512 65.2098 484.482 67.9298 480.802 70.5598V72.3898L492.902 71.3298V76.0498C491.562 76.1698 489.552 76.3598 486.852 76.6098C484.152 76.8698 482.142 77.0698 480.802 77.2298V84.6098C480.802 85.9498 480.652 86.9498 480.362 87.6198C479.982 88.3698 479.322 88.9198 478.352 89.2698C476.892 89.8198 474.002 90.0998 469.702 90.0998C469.532 88.6798 468.972 87.0898 468.012 85.3198C469.892 85.3598 471.982 85.3798 474.282 85.3798C474.952 85.3798 475.282 85.0798 475.282 84.4898V77.6998C473.572 77.8598 471.122 78.0898 467.942 78.4098C465.642 78.6098 463.972 78.7598 462.922 78.8798L462.232 73.9798C462.902 73.9398 464.012 73.8398 465.552 73.6798C469.692 73.3698 472.932 73.1098 475.272 72.9098V67.9498H477.532C478.822 67.0098 480.252 65.7698 481.792 64.2298H475.772C472.642 66.7898 469.142 69.1098 465.302 71.1898C464.672 70.2098 463.362 68.8098 461.352 66.9998C463.612 65.9398 465.742 64.7598 467.752 63.4598V59.8598H472.702C474.162 58.6798 475.542 57.4398 476.842 56.1398H462.672V51.3598H472.702V46.3398H465.052V41.6798H472.702V35.8998H478.092V41.6798H485.112V45.6298C486.822 42.8398 488.242 40.0398 489.372 37.2498L494.762 38.7298C492.842 43.2098 490.502 47.4298 487.742 51.3598H492.822V55.6698C495.622 50.1998 497.672 43.5898 498.962 35.8398L504.922 36.7798C504.332 40.0098 503.542 43.2898 502.542 46.6398H520.102V51.7698H516.212C514.712 61.3298 512.282 68.9198 508.942 74.5498C512.162 79.5098 516.052 83.1098 520.602 85.3498C518.972 86.6498 517.612 88.2198 516.522 90.0698C512.172 87.6698 508.452 84.2098 505.362 79.6798C501.762 84.0098 497.122 87.5298 491.442 90.2398L491.472 90.2798ZM478.122 51.3998H481.132C482.472 49.7098 483.662 48.0398 484.702 46.3798H478.122V51.3998ZM489.342 61.1898C490.382 59.8898 491.472 58.2198 492.602 56.1698H484.012C482.972 57.4698 481.842 58.7098 480.622 59.8898H486.082L487.082 59.5898L489.342 61.1798V61.1898ZM505.712 68.3298C507.762 63.8098 509.262 58.2998 510.222 51.8098H501.002C502.132 58.1798 503.702 63.6898 505.702 68.3298H505.712Z" fill="white"/>
<path d="M458.964 108.61C507.593 108.61 547.014 88.821 547.014 64.41C547.014 39.999 507.593 20.21 458.964 20.21C410.335 20.21 370.914 39.999 370.914 64.41C370.914 88.821 410.335 108.61 458.964 108.61Z" stroke="white" stroke-width="2.98" stroke-miterlimit="10"/>
</g>
<g opacity="0.9">
<path d="M625.989 90.0501V78.5401C622.899 80.8601 619.259 83.0201 615.079 85.0301C611.109 86.9201 607.159 88.4101 603.229 89.5101C602.059 87.7801 600.809 86.2801 599.469 85.0301C603.269 84.2001 607.139 83.0001 611.069 81.4301C615.079 79.8201 618.549 78.0701 621.479 76.1801H601.169V71.7501H625.999V68.6201H608.569V51.9801C607.069 53.4401 605.439 54.8501 603.679 56.2301C602.679 54.8901 601.299 53.6501 599.539 52.5101C602.759 50.2301 605.729 47.4901 608.439 44.3101C610.819 41.5201 612.769 38.6801 614.269 35.8101L620.349 36.9301C620.349 36.9301 620.269 37.0501 620.219 37.1701C618.719 39.5701 617.519 41.3801 616.649 42.6001H627.309C628.649 40.1201 629.669 37.9001 630.379 35.9301L636.839 36.7001C635.499 39.1401 634.329 41.1101 633.329 42.6001H653.019V46.9701H633.019V50.2201H650.259V53.9401H633.019V57.3001H650.389V60.9601H633.019V64.3801H655.149V68.6301H631.759V71.7601H656.839V76.1901H636.529C639.369 78.0001 642.779 79.6901 646.749 81.2701C650.549 82.7301 654.359 83.8901 658.159 84.7501C656.659 86.1701 655.459 87.6601 654.589 89.2301C650.579 88.0901 646.589 86.5901 642.609 84.7501C638.429 82.8201 634.809 80.7201 631.759 78.4401V90.0701H625.989V90.0501ZM614.019 50.2201H627.439V46.9701H614.019V50.2201ZM614.019 57.3001H627.439V53.9401H614.019V57.3001ZM614.019 64.3801H627.439V60.9601H614.019V64.3801Z" fill="white"/>
<path d="M667.809 85.5599C666.809 84.8499 665.319 84.1599 663.359 83.4899C665.069 80.2199 666.309 75.6199 667.059 69.6799L672.009 70.5099C671.049 76.9199 669.649 81.9399 667.809 85.5599ZM674.209 90.1699V66.1499C670.739 66.3899 667.479 66.5599 664.429 66.6799L663.929 61.8399L668.319 61.7199C669.279 60.5399 670.489 59.0099 671.959 57.1199C670.199 54.7599 667.569 52.0099 664.059 48.8599L666.879 45.1999C667.459 45.6699 668.029 46.1399 668.569 46.6199C670.779 42.9199 672.499 39.3599 673.709 35.9399L678.979 37.7099C675.759 43.4499 673.379 47.4099 671.829 49.5699C673.079 50.7899 674.109 51.9299 674.899 52.9899C677.449 49.3299 679.559 45.9099 681.229 42.7199L686.179 44.7299C681.789 51.2999 677.629 56.8899 673.699 61.4899L682.039 61.1899C681.159 59.4599 680.279 57.8899 679.409 56.4699L683.609 54.7599C686.659 59.3199 688.669 63.3599 689.629 66.8599L685.179 68.8699C684.929 67.8899 684.549 66.7899 684.049 65.5699L679.409 65.8699V90.1799H674.209V90.1699ZM684.619 82.0799C684.079 79.1299 682.799 75.3499 680.799 70.7499L685.189 69.3899C687.149 73.4399 688.509 77.1599 689.269 80.5399L684.629 82.0699L684.619 82.0799ZM689.569 61.6599V56.6399H701.549V48.8499H687.689V43.8899H701.549V35.9199H707.439V43.8899H721.799V48.8499H707.439V56.6399H720.359V61.6599H689.569ZM691.509 89.9899V67.3899H718.789V89.9299H713.149V87.2699H696.969V89.9799H691.509V89.9899ZM696.969 82.3799H713.149V72.3499H696.969V82.3799Z" fill="white"/>
<path d="M660.691 108.61C709.319 108.61 748.741 88.821 748.741 64.41C748.741 39.999 709.319 20.21 660.691 20.21C612.062 20.21 572.641 39.999 572.641 64.41C572.641 88.821 612.062 108.61 660.691 108.61Z" stroke="white" stroke-width="2.98" stroke-miterlimit="10"/>
</g>
<g opacity="0.9">
<path d="M838.456 90.1699C838.206 88.7899 837.646 87.2399 836.766 85.5099C840.356 85.6299 842.886 85.6499 844.356 85.5699C845.106 85.5699 845.486 85.2399 845.486 84.5699V77.4299H829.246C832.466 80.0299 834.826 82.3699 836.326 84.4499L831.816 87.3399C830.186 84.9399 827.636 82.2599 824.166 79.3099L827.486 77.4199H818.076V73.0499H845.476V69.7999C835.356 70.1199 826.816 70.3299 819.836 70.4499L819.336 66.1999C824.226 66.1999 829.886 66.1399 836.326 66.0199V62.9499H822.156V47.1299H836.326V44.2999H819.646V40.6399C818.306 43.6699 816.656 46.8399 814.696 50.1399V89.9699H809.176V58.2799C807.416 60.5199 805.626 62.5699 803.786 64.4199C802.946 62.5299 801.886 60.6799 800.586 58.8699C803.516 56.1599 806.316 52.7499 808.986 48.6599C811.576 44.6499 813.726 40.4799 815.446 36.1499L820.906 37.6799C820.696 38.2299 820.346 39.0599 819.836 40.1599H836.326V36.3799H842.036V40.1599H858.966V44.2899H842.036V47.1199H856.766V62.9399H852.946C856.036 65.2999 858.406 67.4799 860.026 69.4899L855.886 71.9099C855.216 71.0499 854.526 70.2399 853.816 69.4899L851.116 69.6099V73.0299H859.576V77.3999H851.116V84.7199C851.116 86.0999 850.926 87.1199 850.556 87.7899C850.176 88.5399 849.466 89.0699 848.426 89.3799C847.506 89.7299 846.166 89.9499 844.416 90.0299C843.326 90.1099 841.346 90.1499 838.456 90.1499V90.1699ZM827.476 53.4599H836.316V50.3899H827.476V53.4599ZM827.476 59.7199H836.316V56.5899H827.476V59.7199ZM842.026 53.4599H851.116V50.3899H842.026V53.4599ZM842.026 59.7199H851.116V56.5899H842.026V59.7199ZM842.026 65.9699L849.866 65.8499C848.866 64.9499 847.856 64.1199 846.856 63.3699L847.606 62.9599H842.026V65.9699Z" fill="white"/>
<path d="M869.557 85.3901C869.057 84.7201 868.367 83.9701 867.487 83.1501C866.567 82.2501 865.817 81.6201 865.227 81.2601C868.237 78.7401 870.847 75.3701 873.067 71.1401C875.277 66.9101 876.937 62.1001 878.017 56.7101H867.237V51.7501H879.777L880.907 51.5101L884.417 52.7501C883.287 60.0701 881.407 66.5801 878.777 72.2801C876.227 77.8701 873.157 82.2301 869.557 85.3801V85.3901ZM882.967 90.2301C882.637 88.7301 881.927 86.9801 880.837 84.9801C884.887 85.1801 887.967 85.2201 890.057 85.1001C890.637 85.0601 891.037 84.9501 891.247 84.7801C891.457 84.6001 891.557 84.2601 891.557 83.7501V79.0901H879.767V74.4901H891.557V69.4701H883.097V65.0401H891.557V60.2601H884.477V55.7801H891.557V48.9901H895.257C898.227 47.5701 900.917 45.9601 903.347 44.1501H875.127V39.1301H909.367L910.687 38.8301L914.637 41.6001C909.747 46.2801 903.997 50.1001 897.397 53.0501V55.7601H905.167V60.2401H897.397V65.0201H906.297V69.4501H897.397V74.4701H909.627V79.0701H897.397V83.8501C897.397 85.4201 897.167 86.6201 896.707 87.4501C896.247 88.2801 895.427 88.8901 894.257 89.2801C892.507 89.9101 888.737 90.2201 882.967 90.2201V90.2301ZM919.897 85.5001C912.577 79.3601 907.587 67.8201 904.907 50.8601L910.107 50.0301C910.607 53.2601 911.237 56.3601 911.987 59.3501C914.957 56.1201 917.167 53.4301 918.637 51.2701L923.337 54.6901C919.277 59.0601 916.047 62.3601 913.617 64.6001C916.207 72.0801 919.737 77.4601 924.217 80.7701C922.417 82.0701 920.977 83.6401 919.887 85.4901L919.897 85.5001Z" fill="white"/>
<path d="M862.433 108.61C911.061 108.61 950.483 88.821 950.483 64.41C950.483 39.999 911.061 20.21 862.433 20.21C813.804 20.21 774.383 39.999 774.383 64.41C774.383 88.821 813.804 108.61 862.433 108.61Z" stroke="white" stroke-width="2.98" stroke-miterlimit="10"/>
</g>
</g>
<defs>
<clipPath id="clip0_491_41">
<rect width="986" height="620" fill="white"/>
</clipPath>
</defs>
</svg>
