<?xml version="1.0" encoding="UTF-8"?><svg id="_圖層_1" xmlns="http://www.w3.org/2000/svg" viewBox="0 0 286 195"><defs><style>.cls-1{fill:#e5c12c;}.cls-2{fill:none;stroke:#e5c12c;stroke-linecap:round;stroke-linejoin:round;stroke-width:3.32px;}</style></defs><path class="cls-1" d="M97.85,85.86c0,.35-.07,1.04-.22,2.21,3.34-2.28,7.19-3.31,12.01-3.31,6.6,0,12.01,1.93,15.94,5.66,3.71,3.52,5.56,8.01,5.56,13.81,0,13.26-9.34,21.13-25.05,21.13-9.34,0-16.68-2.97-20.98-8.49-1.71-2.14-2.59-4.14-3.71-7.74l14.9-2.14c1.26,4.56,4.37,6.7,9.71,6.7,6.23,0,10.38-3.66,10.38-9.19s-4-9.12-10.23-9.12c-4.67,0-7.71,1.73-9.34,5.11l-13.79-1.24c.3-2.07.52-3.73.74-5.66l2-21.55c.15-1.45.22-3.11.3-5.73,3.11.14,3.85.14,7.41.14h22.16c6.52,0,9.27-.14,12.23-.48v12.09c-3.93-.35-7.34-.48-12.08-.48h-17.2l-.74,8.29Z"/><path class="cls-1" d="M162.34,106.86c-1.48,8.42-4.67,14.71-10.82,21.55-3.19-4.14-5.49-6.28-9.41-8.98,3.56-3.45,5.56-6.49,7.04-10.77,2.22-6.15,2.96-14.23,2.96-33.08,0-5.32-.15-8.15-.44-10.7,3.19.28,5.19.34,9.71.34h33.43c4.74,0,6.97-.07,9.34-.34-.3,2-.37,3.8-.37,8.49v44.06c0,4.49-.96,6.91-3.26,8.36-2.08,1.31-4.89,1.79-10.9,1.79-2.22,0-4.89-.07-8.45-.21-.74-4.42-1.41-6.97-3.11-10.77,4.08.55,8.52.9,11.56.9,2.08,0,2.52-.28,2.52-1.52v-9.12h-29.8ZM192.14,97.39v-6.7h-28.32c-.15,2.83-.22,4.07-.45,6.7h28.76ZM192.14,81.23v-6.01h-28.24v6.01h28.24Z"/><ellipse class="cls-2" cx="143" cy="97.5" rx="94.9" ry="81.23"/></svg>