<?xml version="1.0" encoding="UTF-8"?><svg id="_圖層_1" xmlns="http://www.w3.org/2000/svg" viewBox="0 0 286 195"><defs><style>.cls-1{fill:#e5c12c;}.cls-2{fill:none;stroke:#e5c12c;stroke-linecap:round;stroke-linejoin:round;stroke-width:3.32px;}</style></defs><path class="cls-1" d="M79.02,99.81q3.34-3.45,7.12-7.6l16.09-17.54c3.56-3.8,4.97-5.53,6.89-8.22h15.2c-.44,4.08-.59,6.84-.59,11.46v22.44h2.15c2.3,0,4.74-.21,7.34-.55v12.57c-2.22-.28-4.97-.41-7.26-.41h-2.22v3.45c0,3.87.15,5.87.59,8.49h-15.27c.37-2.35.59-5.25.59-8.63v-3.38h-20.98c-4.82,0-6.89.07-9.64.28v-12.36ZM109.71,92.49c0-3.11.15-6.91.44-9.94-1.48,1.93-2.59,3.31-4.6,5.66l-10.82,12.29h14.97v-8.01Z"/><path class="cls-1" d="M162.34,106.85c-1.48,8.42-4.67,14.71-10.82,21.55-3.19-4.14-5.49-6.28-9.41-8.98,3.56-3.45,5.56-6.49,7.04-10.77,2.22-6.15,2.96-14.23,2.96-33.08,0-5.32-.15-8.15-.45-10.7,3.19.28,5.19.34,9.71.34h33.43c4.74,0,6.97-.07,9.34-.34-.3,2-.37,3.8-.37,8.49v44.06c0,4.49-.96,6.91-3.26,8.36-2.08,1.31-4.89,1.79-10.9,1.79-2.22,0-4.89-.07-8.45-.21-.74-4.42-1.41-6.97-3.11-10.77,4.08.55,8.52.9,11.56.9,2.08,0,2.52-.28,2.52-1.52v-9.12h-29.8ZM192.14,97.39v-6.7h-28.32c-.15,2.83-.22,4.07-.44,6.7h28.76ZM192.14,81.23v-6.01h-28.24v6.01h28.24Z"/><ellipse class="cls-2" cx="143" cy="97.5" rx="94.9" ry="81.23"/></svg>