<?xml version="1.0" encoding="UTF-8"?><svg id="_圖層_1" xmlns="http://www.w3.org/2000/svg" viewBox="0 0 190 165"><defs><style>.cls-1{fill:#ed7921;}.cls-2{fill:#fff;}</style></defs><path class="cls-2" d="M82.88,129.24c8.62-10.78,16.4-26.07-3.71-26.55-11.23-.27-21.17,6.22-27.28,11.48-5.95,5.12-26,29.22-2.98,32.08,10.22,1.27,18.87-2.61,24.75-7.31,1.94-1.55,5.65-5.24,9.22-9.71Z"/><path class="cls-1" d="M138.57,27.66c.53.41,1.02.82,1.48,1.21,3.22,2.81,5.69,6.77,5.72,11.04.11,18.06-28.94,7.2-35.43-.1-5.48-6.17-7.5-16.19,1.56-20.41,8.15-3.8,20.47,3.44,26.68,8.25Z"/></svg>