<?xml version="1.0" encoding="UTF-8"?><svg id="_圖層_4" xmlns="http://www.w3.org/2000/svg" viewBox="0 0 122 110"><defs><style>.cls-1{fill:#fff;}</style></defs><path class="cls-1" d="M98.98,17.02c-2.35-2.35-4.79-3.94-7.91-5.15-3.22-1.25-6.61-1.9-10.98-2.1-4.96-.23-6.61-.28-19.09-.28s-14.13.05-19.09.28c-4.37.2-7.76.85-10.98,2.1-3.12,1.21-5.56,2.8-7.91,5.15s-3.94,4.79-5.15,7.91c-1.25,3.22-1.9,6.61-2.1,10.98-.23,4.92-.28,6.56-.28,19.09s.05,14.17.28,19.09c.2,4.38.85,7.76,2.1,10.98,1.21,3.12,2.8,5.56,5.15,7.91s4.79,3.94,7.91,5.15c3.22,1.25,6.61,1.9,10.98,2.1,4.94.23,6.58.28,19.09.28s14.15-.05,19.09-.28c4.37-.2,7.76-.85,10.98-2.1,3.12-1.21,5.56-2.8,7.91-5.15,2.35-2.35,3.94-4.79,5.15-7.91,1.25-3.22,1.9-6.61,2.1-10.98.22-4.93.28-6.57.28-19.09s-.05-14.15-.28-19.09c-.2-4.37-.85-7.76-2.1-10.98-1.21-3.12-2.8-5.56-5.15-7.91ZM99.65,73.79c-.21,4.65-1,7.2-1.66,8.9-.89,2.29-1.95,3.92-3.67,5.64-1.72,1.72-3.35,2.78-5.64,3.67-1.7.66-4.24,1.45-8.9,1.66-4.91.22-6.38.27-18.79.27s-13.88-.05-18.79-.27c-4.65-.21-7.2-1-8.9-1.66-2.29-.89-3.92-1.95-5.64-3.67-1.72-1.72-2.78-3.35-3.67-5.64-.66-1.7-1.44-4.25-1.66-8.9-.22-4.9-.27-6.38-.27-18.79s.05-13.88.27-18.79c.21-4.65,1-7.2,1.66-8.9.89-2.29,1.95-3.92,3.67-5.64,1.72-1.72,3.35-2.78,5.64-3.67,1.7-.66,4.24-1.45,8.9-1.66,4.9-.22,6.37-.27,18.79-.27s13.89.05,18.79.27c4.66.21,7.2,1,8.9,1.66,2.29.89,3.93,1.95,5.64,3.67,1.72,1.72,2.78,3.35,3.67,5.64.66,1.7,1.44,4.25,1.66,8.9.22,4.93.27,6.41.27,18.79s-.05,13.86-.27,18.79Z"/><path class="cls-1" d="M61,32.06c-12.65,0-22.94,10.29-22.94,22.94s10.29,22.93,22.94,22.93,22.94-10.29,22.94-22.93-10.29-22.94-22.94-22.94ZM61,71.35c-9.02,0-16.35-7.34-16.35-16.35s7.34-16.35,16.35-16.35,16.35,7.34,16.35,16.35-7.34,16.35-16.35,16.35Z"/><path class="cls-1" d="M85,25.32c-2.58,0-4.68,2.1-4.68,4.68s2.1,4.68,4.68,4.68,4.68-2.1,4.68-4.68-2.1-4.68-4.68-4.68Z"/></svg>